# MagicaVoxel @ Ephtracy

# group
o 

# material
mtllib korzina.mtl
usemtl palette

# normals
vn -1 0 0
vn 1 0 0
vn 0 0 1
vn 0 0 -1
vn 0 -1 0
vn 0 1 0

# texcoords
vt 0.0878906 0.5
vt 0.162109 0.5
vt 0.650391 0.5
vt 0.849609 0.5

# verts
v -1.3 0.2 -0.8
v -1.3 0.2 -1.3
v -1.3 1.6 -0.8
v -1.3 1.6 -1.3
v -1.2 0 -0.8
v -1.2 0 -1.3
v -1.2 0.2 -0.6
v -1.2 0.2 -0.8
v -1.2 0.2 -1.3
v -1.2 0.2 -1.5
v -1.2 1.6 -0.6
v -1.2 1.6 -0.8
v -1.2 1.6 -1.1
v -1.2 1.6 -1.3
v -1.2 1.6 -1.5
v -1.2 1.7 -0.8
v -1.2 1.7 -1.1
v -1.1 0 -0.6
v -1.1 0 -0.8
v -1.1 0 -1.3
v -1.1 0 -1.5
v -1.1 0.2 -0.5
v -1.1 0.2 -0.6
v -1.1 0.2 -0.8
v -1.1 0.2 -1.3
v -1.1 0.2 -1.5
v -1.1 0.2 -1.6
v -1.1 1.6 -0.5
v -1.1 1.6 -0.6
v -1.1 1.6 -1.5
v -1.1 1.6 -1.6
v -1 0 -0.5
v -1 0 -0.6
v -1 0 -1.5
v -1 0 -1.6
v -1 0.2 -0.4
v -1 0.2 -0.5
v -1 0.2 -0.6
v -1 0.2 -1.5
v -1 0.2 -1.6
v -1 0.2 -1.7
v -1 1.6 -0.4
v -1 1.6 -0.5
v -1 1.6 -0.8
v -1 1.6 -1.6
v -1 1.6 -1.7
v -1 1.7 -0.5
v -1 1.7 -0.8
v -0.9 1.6 -1.1
v -0.9 1.6 -1.4
v -0.9 1.7 -1.1
v -0.9 1.7 -1.4
v -0.8 0 -0.4
v -0.8 0 -0.5
v -0.8 0 -1.6
v -0.8 0 -1.7
v -0.8 0.2 -0.3
v -0.8 0.2 -0.4
v -0.8 0.2 -0.5
v -0.8 0.2 -1.6
v -0.8 0.2 -1.7
v -0.8 0.2 -1.8
v -0.8 1.6 -0.3
v -0.8 1.6 -0.4
v -0.8 1.6 -1.7
v -0.8 1.6 -1.8
v -0.7 1.6 -0.4
v -0.7 1.6 -0.5
v -0.7 1.7 -0.4
v -0.7 1.7 -0.5
v -0.5 1.6 -1.4
v -0.5 1.6 -1.5
v -0.5 1.7 -1.4
v -0.5 1.7 -1.5
v -0.4 0.1 -0.5
v -0.4 0.1 -0.6
v -0.4 0.1 -1.5
v -0.4 0.1 -1.6
v -0.4 1.5 -0.5
v -0.4 1.5 -0.6
v -0.4 1.5 -1.5
v -0.4 1.5 -1.6
v -0.4 1.6 -1.5
v -0.4 1.6 -1.6
v -0.4 1.7 -1.5
v -0.4 1.7 -1.6
v -0.2 0.1 -0.6
v -0.2 0.1 -0.7
v -0.2 0.1 -1.4
v -0.2 0.1 -1.5
v -0.2 1.5 -0.6
v -0.2 1.5 -0.7
v -0.2 1.5 -1.4
v -0.2 1.5 -1.5
v -0.1 0.1 -0.7
v -0.1 0.1 -0.9
v -0.1 0.1 -1.2
v -0.1 0.1 -1.4
v -0.1 1.5 -0.7
v -0.1 1.5 -0.9
v -0.1 1.5 -1.2
v -0.1 1.5 -1.4
v -1.19209e-07 0.1 -0.9
v -1.19209e-07 0.1 -1.2
v -1.19209e-07 1.5 -0.9
v -1.19209e-07 1.5 -1.2
v -1.1 0.1 -0.9
v -1.1 0.1 -1.2
v -1.1 1.5 -0.9
v -1.1 1.5 -1.2
v -1 0.1 -0.7
v -1 0.1 -0.9
v -1 0.1 -1.2
v -1 0.1 -1.4
v -1 1.5 -0.7
v -1 1.5 -0.9
v -1 1.5 -1.2
v -1 1.5 -1.4
v -0.9 0.1 -0.6
v -0.9 0.1 -0.7
v -0.9 0.1 -1.4
v -0.9 0.1 -1.5
v -0.9 1.5 -0.6
v -0.9 1.5 -0.7
v -0.9 1.5 -1.4
v -0.9 1.5 -1.5
v -0.7 0.1 -0.5
v -0.7 0.1 -0.6
v -0.7 0.1 -1.5
v -0.7 0.1 -1.6
v -0.7 1.5 -0.5
v -0.7 1.5 -0.6
v -0.7 1.5 -1.5
v -0.7 1.5 -1.6
v -0.4 0.2 -1.7
v -0.4 0.2 -1.8
v -0.4 1.6 -0.4
v -0.4 1.6 -0.6
v -0.4 1.6 -1.7
v -0.4 1.6 -1.8
v -0.4 1.7 -0.4
v -0.4 1.7 -0.6
v -0.3 0 -0.4
v -0.3 0 -0.5
v -0.3 0 -1.6
v -0.3 0 -1.7
v -0.3 0.2 -0.3
v -0.3 0.2 -0.4
v -0.3 0.2 -0.5
v -0.3 0.2 -1.6
v -0.3 0.2 -1.7
v -0.3 1.6 -0.3
v -0.3 1.6 -0.4
v -0.2 0.2 -1.6
v -0.2 0.2 -1.7
v -0.2 1.6 -1.6
v -0.2 1.6 -1.7
v -0.1 0 -0.5
v -0.1 0 -0.6
v -0.1 0 -1.5
v -0.1 0 -1.6
v -0.1 0.2 -0.4
v -0.1 0.2 -0.5
v -0.1 0.2 -0.6
v -0.1 0.2 -1.5
v -0.1 0.2 -1.6
v -0.1 1.6 -0.4
v -0.1 1.6 -0.5
v -0.1 1.6 -0.6
v -0.1 1.6 -0.9
v -0.1 1.6 -1.3
v -0.1 1.6 -1.6
v -0.1 1.7 -0.6
v -0.1 1.7 -0.9
v -0.1 1.7 -1.3
v -0.1 1.7 -1.6
v -1.19209e-07 0 -0.6
v -1.19209e-07 0 -0.8
v -1.19209e-07 0 -1.3
v -1.19209e-07 0 -1.5
v -1.19209e-07 0.2 -0.5
v -1.19209e-07 0.2 -0.6
v -1.19209e-07 0.2 -0.8
v -1.19209e-07 0.2 -1.3
v -1.19209e-07 0.2 -1.5
v -1.19209e-07 0.2 -1.6
v -1.19209e-07 1.6 -0.5
v -1.19209e-07 1.6 -0.6
v -1.19209e-07 1.6 -1.5
v -1.19209e-07 1.6 -1.6
v 0.0999999 0 -0.8
v 0.0999999 0 -1.3
v 0.0999999 0.2 -0.6
v 0.0999999 0.2 -0.8
v 0.0999999 0.2 -1.3
v 0.0999999 0.2 -1.5
v 0.0999999 1.6 -0.6
v 0.0999999 1.6 -0.8
v 0.0999999 1.6 -0.9
v 0.0999999 1.6 -1.1
v 0.0999999 1.6 -1.3
v 0.0999999 1.6 -1.5
v 0.0999999 1.7 -0.9
v 0.0999999 1.7 -1.1
v 0.0999999 1.7 -1.3
v 0.2 0.2 -0.8
v 0.2 0.2 -1.3
v 0.2 1.6 -0.8
v 0.2 1.6 -1.3
v -0.8 0.2 -0.3
v -0.8 1.6 -0.3
v -0.3 0.2 -0.3
v -0.3 1.6 -0.3
v -1 0.2 -0.4
v -1 1.6 -0.4
v -0.8 0 -0.4
v -0.8 0.2 -0.4
v -0.8 1.6 -0.4
v -0.7 1.6 -0.4
v -0.7 1.7 -0.4
v -0.4 1.6 -0.4
v -0.4 1.7 -0.4
v -0.3 0 -0.4
v -0.3 0.2 -0.4
v -0.3 1.6 -0.4
v -0.1 0.2 -0.4
v -0.1 1.6 -0.4
v -1.1 0.2 -0.5
v -1.1 1.6 -0.5
v -1 0 -0.5
v -1 0.2 -0.5
v -1 1.6 -0.5
v -1 1.7 -0.5
v -0.8 0 -0.5
v -0.8 0.2 -0.5
v -0.7 1.6 -0.5
v -0.7 1.7 -0.5
v -0.3 0 -0.5
v -0.3 0.2 -0.5
v -0.1 0 -0.5
v -0.1 0.2 -0.5
v -0.1 1.6 -0.5
v -1.19209e-07 0.2 -0.5
v -1.19209e-07 1.6 -0.5
v -1.2 0.2 -0.6
v -1.2 1.6 -0.6
v -1.1 0 -0.6
v -1.1 0.2 -0.6
v -1.1 1.6 -0.6
v -1 0 -0.6
v -1 0.2 -0.6
v -0.4 1.6 -0.6
v -0.4 1.7 -0.6
v -0.1 0 -0.6
v -0.1 0.2 -0.6
v -0.1 1.6 -0.6
v -0.1 1.7 -0.6
v -1.19209e-07 0 -0.6
v -1.19209e-07 0.2 -0.6
v -1.19209e-07 1.6 -0.6
v 0.0999999 0.2 -0.6
v 0.0999999 1.6 -0.6
v -1.3 0.2 -0.8
v -1.3 1.6 -0.8
v -1.2 0 -0.8
v -1.2 0.2 -0.8
v -1.2 1.6 -0.8
v -1.2 1.7 -0.8
v -1.1 0 -0.8
v -1.1 0.2 -0.8
v -1 1.6 -0.8
v -1 1.7 -0.8
v -1.19209e-07 0 -0.8
v -1.19209e-07 0.2 -0.8
v 0.0999999 0 -0.8
v 0.0999999 0.2 -0.8
v 0.0999999 1.6 -0.8
v 0.2 0.2 -0.8
v 0.2 1.6 -0.8
v -0.1 1.6 -0.9
v -0.1 1.7 -0.9
v 0.0999999 1.6 -0.9
v 0.0999999 1.7 -0.9
v -1.1 0.1 -1.2
v -1.1 1.5 -1.2
v -1 0.1 -1.2
v -1 1.5 -1.2
v -0.1 0.1 -1.2
v -0.1 1.5 -1.2
v -1.19209e-07 0.1 -1.2
v -1.19209e-07 1.5 -1.2
v -1 0.1 -1.4
v -1 1.5 -1.4
v -0.9 0.1 -1.4
v -0.9 1.5 -1.4
v -0.2 0.1 -1.4
v -0.2 1.5 -1.4
v -0.1 0.1 -1.4
v -0.1 1.5 -1.4
v -0.9 0.1 -1.5
v -0.9 1.5 -1.5
v -0.7 0.1 -1.5
v -0.7 1.5 -1.5
v -0.4 0.1 -1.5
v -0.4 1.5 -1.5
v -0.2 0.1 -1.5
v -0.2 1.5 -1.5
v -0.7 0.1 -1.6
v -0.7 1.5 -1.6
v -0.4 0.1 -1.6
v -0.4 1.5 -1.6
v -0.7 0.1 -0.5
v -0.7 1.5 -0.5
v -0.4 0.1 -0.5
v -0.4 1.5 -0.5
v -0.9 0.1 -0.6
v -0.9 1.5 -0.6
v -0.7 0.1 -0.6
v -0.7 1.5 -0.6
v -0.4 0.1 -0.6
v -0.4 1.5 -0.6
v -0.2 0.1 -0.6
v -0.2 1.5 -0.6
v -1 0.1 -0.7
v -1 1.5 -0.7
v -0.9 0.1 -0.7
v -0.9 1.5 -0.7
v -0.2 0.1 -0.7
v -0.2 1.5 -0.7
v -0.1 0.1 -0.7
v -0.1 1.5 -0.7
v -1.1 0.1 -0.9
v -1.1 1.5 -0.9
v -1 0.1 -0.9
v -1 1.5 -0.9
v -0.1 0.1 -0.9
v -0.1 1.5 -0.9
v -1.19209e-07 0.1 -0.9
v -1.19209e-07 1.5 -0.9
v -1.2 1.6 -1.1
v -1.2 1.7 -1.1
v -1.1 1.6 -1.1
v -0.9 1.6 -1.1
v -0.9 1.7 -1.1
v -1.3 0.2 -1.3
v -1.3 1.6 -1.3
v -1.2 0 -1.3
v -1.2 0.2 -1.3
v -1.2 1.6 -1.3
v -1.1 0 -1.3
v -1.1 0.2 -1.3
v -0.1 1.6 -1.3
v -0.1 1.7 -1.3
v -1.19209e-07 0 -1.3
v -1.19209e-07 0.2 -1.3
v 0.0999999 0 -1.3
v 0.0999999 0.2 -1.3
v 0.0999999 1.6 -1.3
v 0.0999999 1.7 -1.3
v 0.2 0.2 -1.3
v 0.2 1.6 -1.3
v -0.9 1.6 -1.4
v -0.9 1.7 -1.4
v -0.6 1.6 -1.4
v -0.6 1.7 -1.4
v -0.5 1.6 -1.4
v -0.5 1.7 -1.4
v -1.2 0.2 -1.5
v -1.2 1.6 -1.5
v -1.1 0 -1.5
v -1.1 0.2 -1.5
v -1.1 1.6 -1.5
v -1 0 -1.5
v -1 0.2 -1.5
v -0.5 1.6 -1.5
v -0.5 1.7 -1.5
v -0.4 1.6 -1.5
v -0.4 1.7 -1.5
v -0.1 0 -1.5
v -0.1 0.2 -1.5
v -1.19209e-07 0 -1.5
v -1.19209e-07 0.2 -1.5
v -1.19209e-07 1.6 -1.5
v 0.0999999 0.2 -1.5
v 0.0999999 1.6 -1.5
v -1.1 0.2 -1.6
v -1.1 1.6 -1.6
v -1 0 -1.6
v -1 0.2 -1.6
v -1 1.6 -1.6
v -0.8 0 -1.6
v -0.8 0.2 -1.6
v -0.4 1.6 -1.6
v -0.4 1.7 -1.6
v -0.3 0 -1.6
v -0.3 0.2 -1.6
v -0.2 0.2 -1.6
v -0.2 1.6 -1.6
v -0.1 0 -1.6
v -0.1 0.2 -1.6
v -0.1 1.6 -1.6
v -0.1 1.7 -1.6
v -1.19209e-07 0.2 -1.6
v -1.19209e-07 1.6 -1.6
v -1 0.2 -1.7
v -1 1.6 -1.7
v -0.8 0 -1.7
v -0.8 0.2 -1.7
v -0.8 1.6 -1.7
v -0.4 0.2 -1.7
v -0.4 1.6 -1.7
v -0.3 0 -1.7
v -0.3 0.2 -1.7
v -0.2 0.2 -1.7
v -0.2 1.6 -1.7
v -0.8 0.2 -1.8
v -0.8 1.6 -1.8
v -0.4 0.2 -1.8
v -0.4 1.6 -1.8
v -0.8 0 -0.4
v -0.3 0 -0.4
v -1 0 -0.5
v -0.8 0 -0.5
v -0.3 0 -0.5
v -0.1 0 -0.5
v -1.1 0 -0.6
v -1 0 -0.6
v -0.1 0 -0.6
v -1.19209e-07 0 -0.6
v -1.2 0 -0.8
v -1.1 0 -0.8
v -1.19209e-07 0 -0.8
v 0.0999999 0 -0.8
v -1.2 0 -1.3
v -1.1 0 -1.3
v -1.19209e-07 0 -1.3
v 0.0999999 0 -1.3
v -1.1 0 -1.5
v -1 0 -1.5
v -0.1 0 -1.5
v -1.19209e-07 0 -1.5
v -1 0 -1.6
v -0.8 0 -1.6
v -0.3 0 -1.6
v -0.1 0 -1.6
v -0.8 0 -1.7
v -0.3 0 -1.7
v -0.8 0.2 -0.3
v -0.3 0.2 -0.3
v -1 0.2 -0.4
v -0.8 0.2 -0.4
v -0.3 0.2 -0.4
v -0.1 0.2 -0.4
v -1.1 0.2 -0.5
v -1 0.2 -0.5
v -0.8 0.2 -0.5
v -0.3 0.2 -0.5
v -0.1 0.2 -0.5
v -1.19209e-07 0.2 -0.5
v -1.2 0.2 -0.6
v -1.1 0.2 -0.6
v -1 0.2 -0.6
v -0.1 0.2 -0.6
v -1.19209e-07 0.2 -0.6
v 0.0999999 0.2 -0.6
v -1.3 0.2 -0.8
v -1.2 0.2 -0.8
v -1.1 0.2 -0.8
v -1.19209e-07 0.2 -0.8
v 0.0999999 0.2 -0.8
v 0.2 0.2 -0.8
v -1.3 0.2 -1.3
v -1.2 0.2 -1.3
v -1.1 0.2 -1.3
v -1.19209e-07 0.2 -1.3
v 0.0999999 0.2 -1.3
v 0.2 0.2 -1.3
v -1.2 0.2 -1.5
v -1.1 0.2 -1.5
v -1 0.2 -1.5
v -0.1 0.2 -1.5
v -1.19209e-07 0.2 -1.5
v 0.0999999 0.2 -1.5
v -1.1 0.2 -1.6
v -1 0.2 -1.6
v -0.8 0.2 -1.6
v -0.3 0.2 -1.6
v -0.2 0.2 -1.6
v -0.1 0.2 -1.6
v -1.19209e-07 0.2 -1.6
v -1 0.2 -1.7
v -0.8 0.2 -1.7
v -0.4 0.2 -1.7
v -0.3 0.2 -1.7
v -0.2 0.2 -1.7
v -0.8 0.2 -1.8
v -0.4 0.2 -1.8
v -0.7 1.5 -0.5
v -0.4 1.5 -0.5
v -0.9 1.5 -0.6
v -0.7 1.5 -0.6
v -0.4 1.5 -0.6
v -0.2 1.5 -0.6
v -1 1.5 -0.7
v -0.9 1.5 -0.7
v -0.2 1.5 -0.7
v -0.1 1.5 -0.7
v -1.1 1.5 -0.9
v -1 1.5 -0.9
v -0.1 1.5 -0.9
v -1.19209e-07 1.5 -0.9
v -1.1 1.5 -1.2
v -1 1.5 -1.2
v -0.1 1.5 -1.2
v -1.19209e-07 1.5 -1.2
v -1 1.5 -1.4
v -0.9 1.5 -1.4
v -0.2 1.5 -1.4
v -0.1 1.5 -1.4
v -0.9 1.5 -1.5
v -0.7 1.5 -1.5
v -0.4 1.5 -1.5
v -0.2 1.5 -1.5
v -0.7 1.5 -1.6
v -0.4 1.5 -1.6
v -0.7 0.1 -0.5
v -0.4 0.1 -0.5
v -0.9 0.1 -0.6
v -0.7 0.1 -0.6
v -0.4 0.1 -0.6
v -0.2 0.1 -0.6
v -1 0.1 -0.7
v -0.9 0.1 -0.7
v -0.2 0.1 -0.7
v -0.1 0.1 -0.7
v -1.1 0.1 -0.9
v -1 0.1 -0.9
v -0.1 0.1 -0.9
v -1.19209e-07 0.1 -0.9
v -1.1 0.1 -1.2
v -1 0.1 -1.2
v -0.1 0.1 -1.2
v -1.19209e-07 0.1 -1.2
v -1 0.1 -1.4
v -0.9 0.1 -1.4
v -0.2 0.1 -1.4
v -0.1 0.1 -1.4
v -0.9 0.1 -1.5
v -0.7 0.1 -1.5
v -0.4 0.1 -1.5
v -0.2 0.1 -1.5
v -0.7 0.1 -1.6
v -0.4 0.1 -1.6
v -0.8 1.6 -0.3
v -0.3 1.6 -0.3
v -1 1.6 -0.4
v -0.8 1.6 -0.4
v -0.7 1.6 -0.4
v -0.4 1.6 -0.4
v -0.3 1.6 -0.4
v -0.1 1.6 -0.4
v -1.1 1.6 -0.5
v -1 1.6 -0.5
v -0.7 1.6 -0.5
v -0.1 1.6 -0.5
v -1.19209e-07 1.6 -0.5
v -1.2 1.6 -0.6
v -1.1 1.6 -0.6
v -0.4 1.6 -0.6
v -0.1 1.6 -0.6
v -1.19209e-07 1.6 -0.6
v 0.0999999 1.6 -0.6
v -1.3 1.6 -0.8
v -1.2 1.6 -0.8
v -1 1.6 -0.8
v 0.0999999 1.6 -0.8
v 0.2 1.6 -0.8
v -0.1 1.6 -0.9
v 0.0999999 1.6 -0.9
v -1.2 1.6 -1.1
v -1.1 1.6 -1.1
v -0.9 1.6 -1.1
v 0.0999999 1.6 -1.1
v -1.1 1.6 -1.2
v -1 1.6 -1.2
v -1.3 1.6 -1.3
v -1.2 1.6 -1.3
v -0.1 1.6 -1.3
v 0.0999999 1.6 -1.3
v 0.2 1.6 -1.3
v -1 1.6 -1.4
v -0.9 1.6 -1.4
v -0.6 1.6 -1.4
v -0.5 1.6 -1.4
v -1.2 1.6 -1.5
v -1.1 1.6 -1.5
v -0.9 1.6 -1.5
v -0.7 1.6 -1.5
v -0.5 1.6 -1.5
v -0.4 1.6 -1.5
v -1.19209e-07 1.6 -1.5
v 0.0999999 1.6 -1.5
v -1.1 1.6 -1.6
v -1 1.6 -1.6
v -0.7 1.6 -1.6
v -0.4 1.6 -1.6
v -0.2 1.6 -1.6
v -0.1 1.6 -1.6
v -1.19209e-07 1.6 -1.6
v -1 1.6 -1.7
v -0.8 1.6 -1.7
v -0.4 1.6 -1.7
v -0.2 1.6 -1.7
v -0.8 1.6 -1.8
v -0.4 1.6 -1.8
v -0.7 1.7 -0.4
v -0.4 1.7 -0.4
v -1 1.7 -0.5
v -0.7 1.7 -0.5
v -0.7 1.7 -0.6
v -0.4 1.7 -0.6
v -0.1 1.7 -0.6
v -1.2 1.7 -0.8
v -1 1.7 -0.8
v -0.9 1.7 -0.8
v -0.1 1.7 -0.9
v 0.0999999 1.7 -0.9
v -0.5 1.7 -1
v -0.1 1.7 -1
v -1.2 1.7 -1.1
v -0.9 1.7 -1.1
v -0.7 1.7 -1.1
v -0.6 1.7 -1.1
v -0.1 1.7 -1.1
v 0.0999999 1.7 -1.1
v -0.5 1.7 -1.3
v -0.4 1.7 -1.3
v -0.1 1.7 -1.3
v 0.0999999 1.7 -1.3
v -0.9 1.7 -1.4
v -0.6 1.7 -1.4
v -0.5 1.7 -1.4
v -0.5 1.7 -1.5
v -0.4 1.7 -1.5
v -0.4 1.7 -1.6
v -0.1 1.7 -1.6

# faces
f 3/1/1 2/1/1 1/1/1
f 4/1/1 2/1/1 3/1/1
f 8/1/1 6/1/1 5/1/1
f 9/1/1 6/1/1 8/1/1
f 11/1/1 8/1/1 7/1/1
f 12/1/1 8/1/1 11/1/1
f 14/1/1 10/1/1 9/1/1
f 15/1/1 10/1/1 14/1/1
f 16/2/1 13/2/1 12/2/1
f 17/2/1 13/2/1 16/2/1
f 23/1/1 19/1/1 18/1/1
f 24/1/1 19/1/1 23/1/1
f 25/1/1 21/1/1 20/1/1
f 26/1/1 21/1/1 25/1/1
f 28/1/1 23/1/1 22/1/1
f 29/1/1 23/1/1 28/1/1
f 30/1/1 27/1/1 26/1/1
f 31/1/1 27/1/1 30/1/1
f 37/1/1 33/1/1 32/1/1
f 38/1/1 33/1/1 37/1/1
f 39/1/1 35/1/1 34/1/1
f 40/1/1 35/1/1 39/1/1
f 42/1/1 37/1/1 36/1/1
f 43/1/1 37/1/1 42/1/1
f 45/1/1 41/1/1 40/1/1
f 46/1/1 41/1/1 45/1/1
f 47/4/1 44/4/1 43/4/1
f 48/4/1 44/4/1 47/4/1
f 51/2/1 50/2/1 49/2/1
f 52/2/1 50/2/1 51/2/1
f 58/1/1 54/1/1 53/1/1
f 59/1/1 54/1/1 58/1/1
f 60/1/1 56/1/1 55/1/1
f 61/1/1 56/1/1 60/1/1
f 63/1/1 58/1/1 57/1/1
f 64/1/1 58/1/1 63/1/1
f 65/1/1 62/1/1 61/1/1
f 66/1/1 62/1/1 65/1/1
f 69/4/1 68/4/1 67/4/1
f 70/4/1 68/4/1 69/4/1
f 73/3/1 72/3/1 71/3/1
f 74/3/1 72/3/1 73/3/1
f 79/1/1 76/1/1 75/1/1
f 80/1/1 76/1/1 79/1/1
f 81/1/1 78/1/1 77/1/1
f 82/1/1 78/1/1 81/1/1
f 85/2/1 84/2/1 83/2/1
f 86/2/1 84/2/1 85/2/1
f 91/1/1 88/1/1 87/1/1
f 92/1/1 88/1/1 91/1/1
f 93/1/1 90/1/1 89/1/1
f 94/1/1 90/1/1 93/1/1
f 99/1/1 96/1/1 95/1/1
f 100/1/1 96/1/1 99/1/1
f 101/1/1 98/1/1 97/1/1
f 102/1/1 98/1/1 101/1/1
f 105/1/1 104/1/1 103/1/1
f 106/1/1 104/1/1 105/1/1
f 107/1/2 108/1/2 109/1/2
f 109/1/2 108/1/2 110/1/2
f 111/1/2 112/1/2 115/1/2
f 115/1/2 112/1/2 116/1/2
f 113/1/2 114/1/2 117/1/2
f 117/1/2 114/1/2 118/1/2
f 119/1/2 120/1/2 123/1/2
f 123/1/2 120/1/2 124/1/2
f 121/1/2 122/1/2 125/1/2
f 125/1/2 122/1/2 126/1/2
f 127/1/2 128/1/2 131/1/2
f 131/1/2 128/1/2 132/1/2
f 129/1/2 130/1/2 133/1/2
f 133/1/2 130/1/2 134/1/2
f 135/1/2 136/1/2 139/1/2
f 139/1/2 136/1/2 140/1/2
f 137/4/2 138/4/2 141/4/2
f 141/4/2 138/4/2 142/4/2
f 143/1/2 144/1/2 148/1/2
f 148/1/2 144/1/2 149/1/2
f 145/1/2 146/1/2 150/1/2
f 150/1/2 146/1/2 151/1/2
f 147/1/2 148/1/2 152/1/2
f 152/1/2 148/1/2 153/1/2
f 154/1/2 155/1/2 156/1/2
f 156/1/2 155/1/2 157/1/2
f 158/1/2 159/1/2 163/1/2
f 163/1/2 159/1/2 164/1/2
f 160/1/2 161/1/2 165/1/2
f 165/1/2 161/1/2 166/1/2
f 162/1/2 163/1/2 167/1/2
f 167/1/2 163/1/2 168/1/2
f 169/3/2 170/3/2 173/3/2
f 173/3/2 170/3/2 174/3/2
f 171/2/2 172/2/2 175/2/2
f 175/2/2 172/2/2 176/2/2
f 177/1/2 178/1/2 182/1/2
f 182/1/2 178/1/2 183/1/2
f 179/1/2 180/1/2 184/1/2
f 184/1/2 180/1/2 185/1/2
f 181/1/2 182/1/2 187/1/2
f 187/1/2 182/1/2 188/1/2
f 185/1/2 186/1/2 189/1/2
f 189/1/2 186/1/2 190/1/2
f 191/1/2 192/1/2 194/1/2
f 194/1/2 192/1/2 195/1/2
f 193/1/2 194/1/2 197/1/2
f 197/1/2 194/1/2 198/1/2
f 195/1/2 196/1/2 201/1/2
f 201/1/2 196/1/2 202/1/2
f 199/3/2 200/3/2 203/3/2
f 200/2/2 201/2/2 204/2/2
f 203/3/2 200/3/2 204/3/2
f 204/2/2 201/2/2 205/2/2
f 206/1/2 207/1/2 208/1/2
f 208/1/2 207/1/2 209/1/2
f 212/1/3 211/1/3 210/1/3
f 213/1/3 211/1/3 212/1/3
f 217/1/3 215/1/3 214/1/3
f 218/1/3 215/1/3 217/1/3
f 221/4/3 220/4/3 219/4/3
f 222/4/3 220/4/3 221/4/3
f 223/1/3 217/1/3 216/1/3
f 224/1/3 217/1/3 223/1/3
f 226/1/3 225/1/3 224/1/3
f 227/1/3 225/1/3 226/1/3
f 231/1/3 229/1/3 228/1/3
f 232/1/3 229/1/3 231/1/3
f 234/1/3 231/1/3 230/1/3
f 235/1/3 231/1/3 234/1/3
f 236/4/3 233/4/3 232/4/3
f 237/4/3 233/4/3 236/4/3
f 240/1/3 239/1/3 238/1/3
f 241/1/3 239/1/3 240/1/3
f 243/1/3 242/1/3 241/1/3
f 244/1/3 242/1/3 243/1/3
f 248/1/3 246/1/3 245/1/3
f 249/1/3 246/1/3 248/1/3
f 250/1/3 248/1/3 247/1/3
f 251/1/3 248/1/3 250/1/3
f 256/3/3 253/3/3 252/3/3
f 257/3/3 253/3/3 256/3/3
f 258/1/3 255/1/3 254/1/3
f 259/1/3 255/1/3 258/1/3
f 261/1/3 260/1/3 259/1/3
f 262/1/3 260/1/3 261/1/3
f 266/1/3 264/1/3 263/1/3
f 267/1/3 264/1/3 266/1/3
f 269/1/3 266/1/3 265/1/3
f 270/1/3 266/1/3 269/1/3
f 271/2/3 268/2/3 267/2/3
f 272/2/3 268/2/3 271/2/3
f 275/1/3 274/1/3 273/1/3
f 276/1/3 274/1/3 275/1/3
f 278/1/3 277/1/3 276/1/3
f 279/1/3 277/1/3 278/1/3
f 282/3/3 281/3/3 280/3/3
f 283/3/3 281/3/3 282/3/3
f 286/1/3 285/1/3 284/1/3
f 287/1/3 285/1/3 286/1/3
f 290/1/3 289/1/3 288/1/3
f 291/1/3 289/1/3 290/1/3
f 294/1/3 293/1/3 292/1/3
f 295/1/3 293/1/3 294/1/3
f 298/1/3 297/1/3 296/1/3
f 299/1/3 297/1/3 298/1/3
f 302/1/3 301/1/3 300/1/3
f 303/1/3 301/1/3 302/1/3
f 306/1/3 305/1/3 304/1/3
f 307/1/3 305/1/3 306/1/3
f 310/1/3 309/1/3 308/1/3
f 311/1/3 309/1/3 310/1/3
f 312/1/4 313/1/4 314/1/4
f 314/1/4 313/1/4 315/1/4
f 316/1/4 317/1/4 318/1/4
f 318/1/4 317/1/4 319/1/4
f 320/1/4 321/1/4 322/1/4
f 322/1/4 321/1/4 323/1/4
f 324/1/4 325/1/4 326/1/4
f 326/1/4 325/1/4 327/1/4
f 328/1/4 329/1/4 330/1/4
f 330/1/4 329/1/4 331/1/4
f 332/1/4 333/1/4 334/1/4
f 334/1/4 333/1/4 335/1/4
f 336/1/4 337/1/4 338/1/4
f 338/1/4 337/1/4 339/1/4
f 340/2/4 341/2/4 342/2/4
f 342/2/4 341/2/4 343/2/4
f 343/2/4 341/2/4 344/2/4
f 345/1/4 346/1/4 348/1/4
f 348/1/4 346/1/4 349/1/4
f 347/1/4 348/1/4 350/1/4
f 350/1/4 348/1/4 351/1/4
f 354/1/4 355/1/4 356/1/4
f 356/1/4 355/1/4 357/1/4
f 352/2/4 353/2/4 358/2/4
f 358/2/4 353/2/4 359/2/4
f 357/1/4 358/1/4 360/1/4
f 360/1/4 358/1/4 361/1/4
f 362/2/4 363/2/4 364/2/4
f 364/2/4 363/2/4 365/2/4
f 364/3/4 365/3/4 366/3/4
f 366/3/4 365/3/4 367/3/4
f 368/1/4 369/1/4 371/1/4
f 371/1/4 369/1/4 372/1/4
f 370/1/4 371/1/4 373/1/4
f 373/1/4 371/1/4 374/1/4
f 375/3/4 376/3/4 377/3/4
f 377/3/4 376/3/4 378/3/4
f 379/1/4 380/1/4 381/1/4
f 381/1/4 380/1/4 382/1/4
f 382/1/4 383/1/4 384/1/4
f 384/1/4 383/1/4 385/1/4
f 386/1/4 387/1/4 389/1/4
f 389/1/4 387/1/4 390/1/4
f 388/1/4 389/1/4 391/1/4
f 391/1/4 389/1/4 392/1/4
f 395/1/4 396/1/4 397/1/4
f 393/2/4 394/2/4 398/2/4
f 395/1/4 397/1/4 399/1/4
f 397/1/4 398/1/4 399/1/4
f 399/1/4 398/1/4 400/1/4
f 398/2/4 394/2/4 401/2/4
f 400/1/4 398/1/4 401/1/4
f 401/2/4 394/2/4 402/2/4
f 400/1/4 401/1/4 403/1/4
f 403/1/4 401/1/4 404/1/4
f 405/1/4 406/1/4 408/1/4
f 408/1/4 406/1/4 409/1/4
f 407/1/4 408/1/4 410/1/4
f 407/1/4 410/1/4 412/1/4
f 410/1/4 411/1/4 412/1/4
f 412/1/4 411/1/4 413/1/4
f 413/1/4 411/1/4 414/1/4
f 414/1/4 411/1/4 415/1/4
f 416/1/4 417/1/4 418/1/4
f 418/1/4 417/1/4 419/1/4
f 423/1/5 421/1/5 420/1/5
f 424/1/5 421/1/5 423/1/5
f 427/1/5 423/1/5 422/1/5
f 427/1/5 425/1/5 424/1/5
f 427/1/5 424/1/5 423/1/5
f 428/1/5 425/1/5 427/1/5
f 431/1/5 427/1/5 426/1/5
f 431/1/5 429/1/5 428/1/5
f 431/1/5 428/1/5 427/1/5
f 432/1/5 429/1/5 431/1/5
f 434/1/5 431/1/5 430/1/5
f 434/1/5 433/1/5 432/1/5
f 434/1/5 432/1/5 431/1/5
f 435/1/5 433/1/5 434/1/5
f 436/1/5 433/1/5 435/1/5
f 437/1/5 433/1/5 436/1/5
f 438/1/5 436/1/5 435/1/5
f 439/1/5 436/1/5 438/1/5
f 440/1/5 436/1/5 439/1/5
f 441/1/5 436/1/5 440/1/5
f 442/1/5 440/1/5 439/1/5
f 443/1/5 440/1/5 442/1/5
f 444/1/5 440/1/5 443/1/5
f 445/1/5 440/1/5 444/1/5
f 446/1/5 444/1/5 443/1/5
f 447/1/5 444/1/5 446/1/5
f 451/1/5 449/1/5 448/1/5
f 452/1/5 449/1/5 451/1/5
f 455/1/5 451/1/5 450/1/5
f 456/1/5 451/1/5 455/1/5
f 457/1/5 453/1/5 452/1/5
f 458/1/5 453/1/5 457/1/5
f 461/1/5 455/1/5 454/1/5
f 462/1/5 455/1/5 461/1/5
f 463/1/5 459/1/5 458/1/5
f 464/1/5 459/1/5 463/1/5
f 467/1/5 461/1/5 460/1/5
f 468/1/5 461/1/5 467/1/5
f 469/1/5 465/1/5 464/1/5
f 470/1/5 465/1/5 469/1/5
f 472/1/5 467/1/5 466/1/5
f 473/1/5 467/1/5 472/1/5
f 476/1/5 471/1/5 470/1/5
f 477/1/5 471/1/5 476/1/5
f 478/1/5 474/1/5 473/1/5
f 479/1/5 474/1/5 478/1/5
f 482/1/5 476/1/5 475/1/5
f 483/1/5 476/1/5 482/1/5
f 484/1/5 480/1/5 479/1/5
f 485/1/5 480/1/5 484/1/5
f 489/1/5 482/1/5 481/1/5
f 490/1/5 482/1/5 489/1/5
f 491/1/5 486/1/5 485/1/5
f 492/1/5 486/1/5 491/1/5
f 494/1/5 488/1/5 487/1/5
f 495/1/5 488/1/5 494/1/5
f 496/1/5 493/1/5 492/1/5
f 497/1/5 493/1/5 496/1/5
f 501/3/5 499/3/5 498/3/5
f 502/3/5 499/3/5 501/3/5
f 505/3/5 501/3/5 500/3/5
f 505/3/5 503/3/5 502/3/5
f 505/3/5 502/3/5 501/3/5
f 506/3/5 503/3/5 505/3/5
f 509/3/5 505/3/5 504/3/5
f 509/3/5 507/3/5 506/3/5
f 509/3/5 506/3/5 505/3/5
f 510/3/5 507/3/5 509/3/5
f 512/3/5 509/3/5 508/3/5
f 512/3/5 511/3/5 510/3/5
f 512/3/5 510/3/5 509/3/5
f 513/3/5 511/3/5 512/3/5
f 514/3/5 511/3/5 513/3/5
f 515/3/5 511/3/5 514/3/5
f 516/3/5 514/3/5 513/3/5
f 517/3/5 514/3/5 516/3/5
f 518/3/5 514/3/5 517/3/5
f 519/3/5 514/3/5 518/3/5
f 520/3/5 518/3/5 517/3/5
f 521/3/5 518/3/5 520/3/5
f 522/3/5 518/3/5 521/3/5
f 523/3/5 518/3/5 522/3/5
f 524/3/5 522/3/5 521/3/5
f 525/3/5 522/3/5 524/3/5
f 526/1/6 527/1/6 529/1/6
f 529/1/6 527/1/6 530/1/6
f 528/1/6 529/1/6 533/1/6
f 530/1/6 531/1/6 533/1/6
f 529/1/6 530/1/6 533/1/6
f 533/1/6 531/1/6 534/1/6
f 532/1/6 533/1/6 537/1/6
f 534/1/6 535/1/6 537/1/6
f 533/1/6 534/1/6 537/1/6
f 537/1/6 535/1/6 538/1/6
f 536/1/6 537/1/6 540/1/6
f 538/1/6 539/1/6 540/1/6
f 537/1/6 538/1/6 540/1/6
f 540/1/6 539/1/6 541/1/6
f 541/1/6 539/1/6 542/1/6
f 542/1/6 539/1/6 543/1/6
f 541/1/6 542/1/6 544/1/6
f 544/1/6 542/1/6 545/1/6
f 545/1/6 542/1/6 546/1/6
f 546/1/6 542/1/6 547/1/6
f 545/1/6 546/1/6 548/1/6
f 548/1/6 546/1/6 549/1/6
f 549/1/6 546/1/6 550/1/6
f 550/1/6 546/1/6 551/1/6
f 549/1/6 550/1/6 552/1/6
f 552/1/6 550/1/6 553/1/6
f 554/1/6 555/1/6 557/1/6
f 557/1/6 555/1/6 558/1/6
f 558/1/6 555/1/6 559/1/6
f 559/1/6 555/1/6 560/1/6
f 556/1/6 557/1/6 563/1/6
f 557/1/6 558/1/6 563/1/6
f 563/1/6 558/1/6 564/1/6
f 559/1/6 560/1/6 565/1/6
f 560/1/6 561/1/6 565/1/6
f 562/1/6 563/1/6 568/1/6
f 565/1/6 566/1/6 569/1/6
f 559/1/6 565/1/6 569/1/6
f 569/1/6 566/1/6 570/1/6
f 570/1/6 566/1/6 571/1/6
f 567/1/6 568/1/6 574/1/6
f 568/1/6 563/1/6 575/1/6
f 574/1/6 568/1/6 575/1/6
f 570/1/6 571/1/6 576/1/6
f 571/1/6 572/1/6 576/1/6
f 576/1/6 577/1/6 578/1/6
f 570/1/6 576/1/6 578/1/6
f 578/1/6 577/1/6 579/1/6
f 573/1/6 574/1/6 580/1/6
f 579/1/6 577/1/6 583/1/6
f 581/3/6 582/3/6 584/3/6
f 580/1/6 581/1/6 584/1/6
f 584/3/6 582/3/6 585/3/6
f 573/1/6 580/1/6 586/1/6
f 580/1/6 584/1/6 586/1/6
f 584/1/6 585/1/6 586/1/6
f 586/1/6 585/1/6 587/1/6
f 583/1/6 577/1/6 589/1/6
f 589/1/6 577/1/6 590/1/6
f 587/1/6 585/1/6 591/1/6
f 585/3/6 582/3/6 591/3/6
f 591/3/6 582/3/6 592/3/6
f 587/1/6 591/1/6 595/1/6
f 591/1/6 592/1/6 595/1/6
f 595/1/6 592/1/6 596/1/6
f 593/3/6 594/3/6 597/3/6
f 596/1/6 592/1/6 597/1/6
f 592/3/6 593/3/6 597/3/6
f 597/3/6 594/3/6 598/3/6
f 598/3/6 594/3/6 599/3/6
f 588/1/6 589/1/6 601/1/6
f 601/1/6 589/1/6 602/1/6
f 596/1/6 597/1/6 603/1/6
f 597/1/6 598/1/6 603/1/6
f 603/1/6 598/1/6 604/1/6
f 599/3/6 600/3/6 605/3/6
f 604/1/6 598/1/6 605/1/6
f 598/3/6 599/3/6 605/3/6
f 605/3/6 600/3/6 606/3/6
f 588/1/6 601/1/6 608/1/6
f 608/1/6 601/1/6 609/1/6
f 606/1/6 607/1/6 610/1/6
f 604/1/6 605/1/6 610/1/6
f 605/1/6 606/1/6 610/1/6
f 610/1/6 607/1/6 611/1/6
f 611/1/6 607/1/6 612/1/6
f 612/1/6 607/1/6 613/1/6
f 611/1/6 612/1/6 614/1/6
f 614/1/6 612/1/6 615/1/6
f 616/4/6 617/4/6 619/4/6
f 619/4/6 617/4/6 620/4/6
f 618/4/6 619/4/6 620/4/6
f 620/4/6 617/4/6 621/4/6
f 618/4/6 620/4/6 624/4/6
f 624/4/6 620/4/6 625/4/6
f 621/3/6 622/3/6 626/3/6
f 620/3/6 621/3/6 626/3/6
f 620/3/6 626/3/6 628/3/6
f 626/3/6 627/3/6 628/3/6
f 628/3/6 627/3/6 629/3/6
f 624/2/6 625/2/6 630/2/6
f 623/2/6 624/2/6 630/2/6
f 625/4/6 620/4/6 631/4/6
f 630/2/6 625/2/6 631/2/6
f 620/3/6 628/3/6 632/3/6
f 631/4/6 620/4/6 632/4/6
f 632/3/6 628/3/6 633/3/6
f 629/3/6 627/3/6 634/3/6
f 628/4/6 629/4/6 634/4/6
f 634/3/6 627/3/6 635/3/6
f 633/3/6 628/3/6 636/3/6
f 628/4/6 634/4/6 636/4/6
f 636/4/6 634/4/6 637/4/6
f 634/2/6 635/2/6 638/2/6
f 637/4/6 634/4/6 638/4/6
f 638/2/6 635/2/6 639/2/6
f 632/2/6 633/2/6 640/2/6
f 631/2/6 632/2/6 640/2/6
f 636/3/6 637/3/6 641/3/6
f 640/2/6 633/2/6 641/2/6
f 633/3/6 636/3/6 641/3/6
f 641/3/6 637/3/6 642/3/6
f 642/3/6 637/3/6 643/3/6
f 637/2/6 638/2/6 644/2/6
f 643/3/6 637/3/6 644/3/6
f 644/2/6 638/2/6 645/2/6
f 645/2/6 638/2/6 646/2/6
