# MagicaVoxel @ Ephtracy

# group
o 

# material
mtllib melnica3.mtl
usemtl palette

# normals
vn -1 0 0
vn 1 0 0
vn 0 0 1
vn 0 0 -1
vn 0 -1 0
vn 0 1 0

# texcoords
vt 0.0292969 0.5
vt 0.0566406 0.5
vt 0.0605469 0.5

# verts
v -2.6 3.8 2.1
v -2.6 3.8 -2.1
v -2.6 4.2 2.1
v -2.6 4.2 -2.1
v -2.5 0 2
v -2.5 0 -2
v -2.5 0.5 2
v -2.5 0.5 -2
v -2.5 0.6 2
v -2.5 0.6 -2
v -2.5 1.1 2
v -2.5 1.1 -2
v -2.5 1.2 2
v -2.5 1.2 -2
v -2.5 1.7 2
v -2.5 1.7 -2
v -2.5 1.8 2
v -2.5 1.8 -2
v -2.5 2.3 2
v -2.5 2.3 -2
v -2.5 2.4 2
v -2.5 2.4 -2
v -2.5 2.9 2
v -2.5 2.9 -2
v -2.5 3 2
v -2.5 3 -2
v -2.5 3.5 2
v -2.5 3.5 -2
v -2.5 3.6 2
v -2.5 3.6 -2
v -2.5 3.8 2
v -2.5 3.8 -2
v -2.4 0.5 1.9
v -2.4 0.5 -1.9
v -2.4 0.6 1.9
v -2.4 0.6 -1.9
v -2.4 1.1 1.9
v -2.4 1.1 -1.9
v -2.4 1.2 1.9
v -2.4 1.2 -1.9
v -2.4 1.7 1.9
v -2.4 1.7 -1.9
v -2.4 1.8 1.9
v -2.4 1.8 -1.9
v -2.4 2.3 1.9
v -2.4 2.3 -1.9
v -2.4 2.4 1.9
v -2.4 2.4 -1.9
v -2.4 2.9 1.9
v -2.4 2.9 -1.9
v -2.4 3 1.9
v -2.4 3 -1.9
v -2.4 3.5 1.9
v -2.4 3.5 -1.9
v -2.4 3.6 1.9
v -2.4 3.6 -1.9
v -0.7 0 2.1
v -0.7 0 2
v -0.7 0.5 2
v -0.7 0.5 1.9
v -0.7 0.6 2
v -0.7 0.6 1.9
v -0.7 1.1 2
v -0.7 1.1 1.9
v -0.7 1.2 2
v -0.7 1.2 1.9
v -0.7 1.7 2
v -0.7 1.7 1.9
v -0.7 1.8 2
v -0.7 1.8 1.9
v -0.7 2.3 2
v -0.7 2.3 1.9
v -0.7 2.4 2
v -0.7 2.4 1.9
v -0.7 2.9 2.1
v -0.7 2.9 2
v -0.5 1.1 2.1
v -0.5 1.1 2
v -0.5 1.6 2.1
v -0.5 1.6 2
v 0.6 0 2.1
v 0.6 0 2
v 0.6 2.8 2.1
v 0.6 2.8 2
v 2.5 4 2
v 2.5 4 -2
v 2.5 4.2 2
v 2.5 4.2 -2
v -2.5 4 2
v -2.5 4 -2
v -2.5 4.2 2
v -2.5 4.2 -2
v -0.6 0 2.1
v -0.6 0 2
v -0.6 2.8 2.1
v -0.6 2.8 2
v -0.4 1.1 2.1
v -0.4 1.1 2
v -0.4 1.6 2.1
v -0.4 1.6 2
v 0.7 0 2.1
v 0.7 0 2
v 0.7 0.5 2
v 0.7 0.5 1.9
v 0.7 0.6 2
v 0.7 0.6 1.9
v 0.7 1.1 2
v 0.7 1.1 1.9
v 0.7 1.2 2
v 0.7 1.2 1.9
v 0.7 1.7 2
v 0.7 1.7 1.9
v 0.7 1.8 2
v 0.7 1.8 1.9
v 0.7 2.3 2
v 0.7 2.3 1.9
v 0.7 2.4 2
v 0.7 2.4 1.9
v 0.7 2.9 2.1
v 0.7 2.9 2
v 2.4 0.5 1.9
v 2.4 0.5 -1.9
v 2.4 0.6 1.9
v 2.4 0.6 -1.9
v 2.4 1.1 1.9
v 2.4 1.1 -1.9
v 2.4 1.2 1.9
v 2.4 1.2 -1.9
v 2.4 1.7 1.9
v 2.4 1.7 -1.9
v 2.4 1.8 1.9
v 2.4 1.8 -1.9
v 2.4 2.3 1.9
v 2.4 2.3 -1.9
v 2.4 2.4 1.9
v 2.4 2.4 -1.9
v 2.4 2.9 1.9
v 2.4 2.9 -1.9
v 2.4 3 1.9
v 2.4 3 -1.9
v 2.4 3.5 1.9
v 2.4 3.5 -1.9
v 2.4 3.6 1.9
v 2.4 3.6 -1.9
v 2.5 0 2
v 2.5 0 -2
v 2.5 0.5 2
v 2.5 0.5 -2
v 2.5 0.6 2
v 2.5 0.6 -2
v 2.5 1.1 2
v 2.5 1.1 -2
v 2.5 1.2 2
v 2.5 1.2 -2
v 2.5 1.7 2
v 2.5 1.7 -2
v 2.5 1.8 2
v 2.5 1.8 -2
v 2.5 2.3 2
v 2.5 2.3 -2
v 2.5 2.4 2
v 2.5 2.4 -2
v 2.5 2.9 2
v 2.5 2.9 -2
v 2.5 3 2
v 2.5 3 -2
v 2.5 3.5 2
v 2.5 3.5 -2
v 2.5 3.6 2
v 2.5 3.6 -2
v 2.5 3.8 2
v 2.5 3.8 -2
v 2.6 3.8 2.1
v 2.6 3.8 -2.1
v 2.6 4.2 2.1
v 2.6 4.2 -2.1
v -2.6 3.8 2.1
v -2.6 4.2 2.1
v -0.7 0 2.1
v -0.7 2.9 2.1
v -0.6 0 2.1
v -0.6 2.8 2.1
v -0.5 1.1 2.1
v -0.5 1.6 2.1
v -0.4 1.1 2.1
v -0.4 1.6 2.1
v 0.6 0 2.1
v 0.6 2.8 2.1
v 0.7 0 2.1
v 0.7 2.9 2.1
v 2.6 3.8 2.1
v 2.6 4.2 2.1
v -2.5 0 2
v -2.5 0.5 2
v -2.5 0.6 2
v -2.5 1.1 2
v -2.5 1.2 2
v -2.5 1.7 2
v -2.5 1.8 2
v -2.5 2.3 2
v -2.5 2.4 2
v -2.5 2.9 2
v -2.5 3 2
v -2.5 3.5 2
v -2.5 3.6 2
v -2.5 3.8 2
v -0.7 0 2
v -0.7 0.5 2
v -0.7 0.6 2
v -0.7 1.1 2
v -0.7 1.2 2
v -0.7 1.7 2
v -0.7 1.8 2
v -0.7 2.3 2
v -0.7 2.4 2
v -0.7 2.9 2
v -0.6 0 2
v -0.6 2.8 2
v -0.5 1.1 2
v -0.5 1.6 2
v -0.4 1.1 2
v -0.4 1.6 2
v 0.6 0 2
v 0.6 2.8 2
v 0.7 0 2
v 0.7 0.5 2
v 0.7 0.6 2
v 0.7 1.1 2
v 0.7 1.2 2
v 0.7 1.7 2
v 0.7 1.8 2
v 0.7 2.3 2
v 0.7 2.4 2
v 0.7 2.9 2
v 2.5 0 2
v 2.5 0.5 2
v 2.5 0.6 2
v 2.5 1.1 2
v 2.5 1.2 2
v 2.5 1.7 2
v 2.5 1.8 2
v 2.5 2.3 2
v 2.5 2.4 2
v 2.5 2.9 2
v 2.5 3 2
v 2.5 3.5 2
v 2.5 3.6 2
v 2.5 3.8 2
v -2.4 0.5 1.9
v -2.4 0.6 1.9
v -2.4 1.1 1.9
v -2.4 1.2 1.9
v -2.4 1.7 1.9
v -2.4 1.8 1.9
v -2.4 2.3 1.9
v -2.4 2.4 1.9
v -2.4 2.9 1.9
v -2.4 3 1.9
v -2.4 3.5 1.9
v -2.4 3.6 1.9
v -0.7 0.5 1.9
v -0.7 0.6 1.9
v -0.7 1.1 1.9
v -0.7 1.2 1.9
v -0.7 1.7 1.9
v -0.7 1.8 1.9
v -0.7 2.3 1.9
v -0.7 2.4 1.9
v 0.7 0.5 1.9
v 0.7 0.6 1.9
v 0.7 1.1 1.9
v 0.7 1.2 1.9
v 0.7 1.7 1.9
v 0.7 1.8 1.9
v 0.7 2.3 1.9
v 0.7 2.4 1.9
v 2.4 0.5 1.9
v 2.4 0.6 1.9
v 2.4 1.1 1.9
v 2.4 1.2 1.9
v 2.4 1.7 1.9
v 2.4 1.8 1.9
v 2.4 2.3 1.9
v 2.4 2.4 1.9
v 2.4 2.9 1.9
v 2.4 3 1.9
v 2.4 3.5 1.9
v 2.4 3.6 1.9
v -2.5 4 -2
v -2.5 4.2 -2
v 2.5 4 -2
v 2.5 4.2 -2
v -2.5 4 2
v -2.5 4.2 2
v 2.5 4 2
v 2.5 4.2 2
v -2.4 0.5 -1.9
v -2.4 0.6 -1.9
v -2.4 1.1 -1.9
v -2.4 1.2 -1.9
v -2.4 1.7 -1.9
v -2.4 1.8 -1.9
v -2.4 2.3 -1.9
v -2.4 2.4 -1.9
v -2.4 2.9 -1.9
v -2.4 3 -1.9
v -2.4 3.5 -1.9
v -2.4 3.6 -1.9
v 2.4 0.5 -1.9
v 2.4 0.6 -1.9
v 2.4 1.1 -1.9
v 2.4 1.2 -1.9
v 2.4 1.7 -1.9
v 2.4 1.8 -1.9
v 2.4 2.3 -1.9
v 2.4 2.4 -1.9
v 2.4 2.9 -1.9
v 2.4 3 -1.9
v 2.4 3.5 -1.9
v 2.4 3.6 -1.9
v -2.5 0 -2
v -2.5 0.5 -2
v -2.5 0.6 -2
v -2.5 1.1 -2
v -2.5 1.2 -2
v -2.5 1.7 -2
v -2.5 1.8 -2
v -2.5 2.3 -2
v -2.5 2.4 -2
v -2.5 2.9 -2
v -2.5 3 -2
v -2.5 3.5 -2
v -2.5 3.6 -2
v -2.5 3.8 -2
v 2.5 0 -2
v 2.5 0.5 -2
v 2.5 0.6 -2
v 2.5 1.1 -2
v 2.5 1.2 -2
v 2.5 1.7 -2
v 2.5 1.8 -2
v 2.5 2.3 -2
v 2.5 2.4 -2
v 2.5 2.9 -2
v 2.5 3 -2
v 2.5 3.5 -2
v 2.5 3.6 -2
v 2.5 3.8 -2
v -2.6 3.8 -2.1
v -2.6 4.2 -2.1
v 2.6 3.8 -2.1
v 2.6 4.2 -2.1
v -0.7 0 2.1
v -0.6 0 2.1
v 0.6 0 2.1
v 0.7 0 2.1
v -2.5 0 2
v -0.7 0 2
v -0.6 0 2
v 0.6 0 2
v 0.7 0 2
v 2.5 0 2
v -0.6 0 1.9
v 0.6 0 1.9
v -2.5 0 -2
v 2.5 0 -2
v -2.5 0.6 2
v -0.7 0.6 2
v 0.7 0.6 2
v 2.5 0.6 2
v -2.4 0.6 1.9
v -0.7 0.6 1.9
v 0.7 0.6 1.9
v 2.4 0.6 1.9
v -2.4 0.6 -1.9
v 2.4 0.6 -1.9
v -2.5 0.6 -2
v 2.5 0.6 -2
v -0.5 1.1 2.1
v -0.4 1.1 2.1
v -0.5 1.1 2
v -0.4 1.1 2
v -2.5 1.2 2
v -0.7 1.2 2
v 0.7 1.2 2
v 2.5 1.2 2
v -2.4 1.2 1.9
v -0.7 1.2 1.9
v 0.7 1.2 1.9
v 2.4 1.2 1.9
v -2.4 1.2 -1.9
v 2.4 1.2 -1.9
v -2.5 1.2 -2
v 2.5 1.2 -2
v -2.5 1.8 2
v -0.7 1.8 2
v 0.7 1.8 2
v 2.5 1.8 2
v -2.4 1.8 1.9
v -0.7 1.8 1.9
v 0.7 1.8 1.9
v 2.4 1.8 1.9
v -2.4 1.8 -1.9
v 2.4 1.8 -1.9
v -2.5 1.8 -2
v 2.5 1.8 -2
v -2.5 2.4 2
v -0.7 2.4 2
v 0.7 2.4 2
v 2.5 2.4 2
v -2.4 2.4 1.9
v -0.7 2.4 1.9
v 0.7 2.4 1.9
v 2.4 2.4 1.9
v -2.4 2.4 -1.9
v 2.4 2.4 -1.9
v -2.5 2.4 -2
v 2.5 2.4 -2
v -0.6 2.8 2.1
v 0.6 2.8 2.1
v -0.6 2.8 2
v 0.6 2.8 2
v -2.5 3 2
v 2.5 3 2
v -2.4 3 1.9
v 2.4 3 1.9
v -2.4 3 -1.9
v 2.4 3 -1.9
v -2.5 3 -2
v 2.5 3 -2
v -2.5 3.6 2
v 2.5 3.6 2
v -2.4 3.6 1.9
v 2.4 3.6 1.9
v -2.4 3.6 -1.9
v 2.4 3.6 -1.9
v -2.5 3.6 -2
v 2.5 3.6 -2
v -2.6 3.8 2.1
v 2.6 3.8 2.1
v -2.5 3.8 2
v 2.5 3.8 2
v -2.5 3.8 -2
v 2.5 3.8 -2
v -2.6 3.8 -2.1
v 2.6 3.8 -2.1
v -2.5 0.5 2
v -0.7 0.5 2
v 0.7 0.5 2
v 2.5 0.5 2
v -2.4 0.5 1.9
v -0.7 0.5 1.9
v 0.7 0.5 1.9
v 2.4 0.5 1.9
v -2.4 0.5 -1.9
v 2.4 0.5 -1.9
v -2.5 0.5 -2
v 2.5 0.5 -2
v -2.5 1.1 2
v -0.7 1.1 2
v 0.7 1.1 2
v 2.5 1.1 2
v -2.4 1.1 1.9
v -0.7 1.1 1.9
v 0.7 1.1 1.9
v 2.4 1.1 1.9
v -2.4 1.1 -1.9
v 2.4 1.1 -1.9
v -2.5 1.1 -2
v 2.5 1.1 -2
v -0.5 1.6 2.1
v -0.4 1.6 2.1
v -0.5 1.6 2
v -0.4 1.6 2
v -2.5 1.7 2
v -0.7 1.7 2
v 0.7 1.7 2
v 2.5 1.7 2
v -2.4 1.7 1.9
v -0.7 1.7 1.9
v 0.7 1.7 1.9
v 2.4 1.7 1.9
v -2.4 1.7 -1.9
v 2.4 1.7 -1.9
v -2.5 1.7 -2
v 2.5 1.7 -2
v -2.5 2.3 2
v -0.7 2.3 2
v 0.7 2.3 2
v 2.5 2.3 2
v -2.4 2.3 1.9
v -0.7 2.3 1.9
v 0.7 2.3 1.9
v 2.4 2.3 1.9
v -2.4 2.3 -1.9
v 2.4 2.3 -1.9
v -2.5 2.3 -2
v 2.5 2.3 -2
v -0.7 2.9 2.1
v 0.7 2.9 2.1
v -2.5 2.9 2
v -0.7 2.9 2
v 0.7 2.9 2
v 2.5 2.9 2
v -2.4 2.9 1.9
v 2.4 2.9 1.9
v -2.4 2.9 -1.9
v 2.4 2.9 -1.9
v -2.5 2.9 -2
v 2.5 2.9 -2
v -2.5 3.5 2
v 2.5 3.5 2
v -2.4 3.5 1.9
v 2.4 3.5 1.9
v -2.4 3.5 -1.9
v 2.4 3.5 -1.9
v -2.5 3.5 -2
v 2.5 3.5 -2
v -2.5 4 2
v 2.5 4 2
v -2.5 4 -2
v 2.5 4 -2
v -2.6 4.2 2.1
v 2.6 4.2 2.1
v -2.5 4.2 2
v 2.5 4.2 2
v -2.5 4.2 -2
v 2.5 4.2 -2
v -2.6 4.2 -2.1
v 2.6 4.2 -2.1

# faces
f 3/1/1 2/1/1 1/1/1
f 4/1/1 2/1/1 3/1/1
f 7/3/1 6/3/1 5/3/1
f 8/3/1 6/3/1 7/3/1
f 11/3/1 10/3/1 9/3/1
f 12/3/1 10/3/1 11/3/1
f 15/3/1 14/3/1 13/3/1
f 16/3/1 14/3/1 15/3/1
f 19/3/1 18/3/1 17/3/1
f 20/3/1 18/3/1 19/3/1
f 23/3/1 22/3/1 21/3/1
f 24/3/1 22/3/1 23/3/1
f 27/3/1 26/3/1 25/3/1
f 28/3/1 26/3/1 27/3/1
f 31/3/1 30/3/1 29/3/1
f 32/3/1 30/3/1 31/3/1
f 35/3/1 34/3/1 33/3/1
f 36/3/1 34/3/1 35/3/1
f 39/3/1 38/3/1 37/3/1
f 40/3/1 38/3/1 39/3/1
f 43/3/1 42/3/1 41/3/1
f 44/3/1 42/3/1 43/3/1
f 47/3/1 46/3/1 45/3/1
f 48/3/1 46/3/1 47/3/1
f 51/3/1 50/3/1 49/3/1
f 52/3/1 50/3/1 51/3/1
f 55/3/1 54/3/1 53/3/1
f 56/3/1 54/3/1 55/3/1
f 59/1/1 58/1/1 57/1/1
f 61/1/1 59/1/1 57/1/1
f 61/3/1 60/3/1 59/3/1
f 62/3/1 60/3/1 61/3/1
f 63/1/1 61/1/1 57/1/1
f 65/1/1 63/1/1 57/1/1
f 65/3/1 64/3/1 63/3/1
f 66/3/1 64/3/1 65/3/1
f 67/1/1 65/1/1 57/1/1
f 69/1/1 67/1/1 57/1/1
f 69/3/1 68/3/1 67/3/1
f 70/3/1 68/3/1 69/3/1
f 71/1/1 69/1/1 57/1/1
f 73/1/1 71/1/1 57/1/1
f 73/3/1 72/3/1 71/3/1
f 74/3/1 72/3/1 73/3/1
f 75/1/1 73/1/1 57/1/1
f 76/1/1 73/1/1 75/1/1
f 79/1/1 78/1/1 77/1/1
f 80/1/1 78/1/1 79/1/1
f 83/1/1 82/1/1 81/1/1
f 84/1/1 82/1/1 83/1/1
f 87/1/1 86/1/1 85/1/1
f 88/1/1 86/1/1 87/1/1
f 89/1/2 90/1/2 91/1/2
f 91/1/2 90/1/2 92/1/2
f 93/1/2 94/1/2 95/1/2
f 95/1/2 94/1/2 96/1/2
f 97/1/2 98/1/2 99/1/2
f 99/1/2 98/1/2 100/1/2
f 101/1/2 102/1/2 103/1/2
f 101/1/2 103/1/2 105/1/2
f 103/3/2 104/3/2 105/3/2
f 105/3/2 104/3/2 106/3/2
f 101/1/2 105/1/2 107/1/2
f 101/1/2 107/1/2 109/1/2
f 107/3/2 108/3/2 109/3/2
f 109/3/2 108/3/2 110/3/2
f 101/1/2 109/1/2 111/1/2
f 101/1/2 111/1/2 113/1/2
f 111/3/2 112/3/2 113/3/2
f 113/3/2 112/3/2 114/3/2
f 101/1/2 113/1/2 115/1/2
f 101/1/2 115/1/2 117/1/2
f 115/3/2 116/3/2 117/3/2
f 117/3/2 116/3/2 118/3/2
f 101/1/2 117/1/2 119/1/2
f 119/1/2 117/1/2 120/1/2
f 121/3/2 122/3/2 123/3/2
f 123/3/2 122/3/2 124/3/2
f 125/3/2 126/3/2 127/3/2
f 127/3/2 126/3/2 128/3/2
f 129/3/2 130/3/2 131/3/2
f 131/3/2 130/3/2 132/3/2
f 133/3/2 134/3/2 135/3/2
f 135/3/2 134/3/2 136/3/2
f 137/3/2 138/3/2 139/3/2
f 139/3/2 138/3/2 140/3/2
f 141/3/2 142/3/2 143/3/2
f 143/3/2 142/3/2 144/3/2
f 145/3/2 146/3/2 147/3/2
f 147/3/2 146/3/2 148/3/2
f 149/3/2 150/3/2 151/3/2
f 151/3/2 150/3/2 152/3/2
f 153/3/2 154/3/2 155/3/2
f 155/3/2 154/3/2 156/3/2
f 157/3/2 158/3/2 159/3/2
f 159/3/2 158/3/2 160/3/2
f 161/3/2 162/3/2 163/3/2
f 163/3/2 162/3/2 164/3/2
f 165/3/2 166/3/2 167/3/2
f 167/3/2 166/3/2 168/3/2
f 169/3/2 170/3/2 171/3/2
f 171/3/2 170/3/2 172/3/2
f 173/1/2 174/1/2 175/1/2
f 175/1/2 174/1/2 176/1/2
f 181/1/3 180/1/3 179/1/3
f 182/1/3 180/1/3 181/1/3
f 185/1/3 184/1/3 183/1/3
f 186/1/3 184/1/3 185/1/3
f 188/1/3 180/1/3 182/1/3
f 189/1/3 188/1/3 187/1/3
f 190/1/3 180/1/3 188/1/3
f 190/1/3 188/1/3 189/1/3
f 191/1/3 178/1/3 177/1/3
f 192/1/3 178/1/3 191/1/3
f 207/3/3 194/3/3 193/3/3
f 208/3/3 194/3/3 207/3/3
f 209/3/3 196/3/3 195/3/3
f 210/3/3 196/3/3 209/3/3
f 211/3/3 198/3/3 197/3/3
f 212/3/3 198/3/3 211/3/3
f 213/3/3 200/3/3 199/3/3
f 214/3/3 200/3/3 213/3/3
f 215/3/3 202/3/3 201/3/3
f 216/3/3 202/3/3 215/3/3
f 219/2/3 218/2/3 217/2/3
f 220/2/3 218/2/3 219/2/3
f 221/2/3 219/2/3 217/2/3
f 222/2/3 218/2/3 220/2/3
f 223/2/3 221/2/3 217/2/3
f 223/2/3 222/2/3 221/2/3
f 224/2/3 218/2/3 222/2/3
f 224/2/3 222/2/3 223/2/3
f 235/3/3 226/3/3 225/3/3
f 236/3/3 226/3/3 235/3/3
f 237/3/3 228/3/3 227/3/3
f 238/3/3 228/3/3 237/3/3
f 239/3/3 230/3/3 229/3/3
f 240/3/3 230/3/3 239/3/3
f 241/3/3 232/3/3 231/3/3
f 242/3/3 232/3/3 241/3/3
f 243/3/3 234/3/3 233/3/3
f 244/3/3 234/3/3 243/3/3
f 245/3/3 204/3/3 203/3/3
f 246/3/3 204/3/3 245/3/3
f 247/3/3 206/3/3 205/3/3
f 248/3/3 206/3/3 247/3/3
f 261/3/3 250/3/3 249/3/3
f 262/3/3 250/3/3 261/3/3
f 263/3/3 252/3/3 251/3/3
f 264/3/3 252/3/3 263/3/3
f 265/3/3 254/3/3 253/3/3
f 266/3/3 254/3/3 265/3/3
f 267/3/3 256/3/3 255/3/3
f 268/3/3 256/3/3 267/3/3
f 277/3/3 270/3/3 269/3/3
f 278/3/3 270/3/3 277/3/3
f 279/3/3 272/3/3 271/3/3
f 280/3/3 272/3/3 279/3/3
f 281/3/3 274/3/3 273/3/3
f 282/3/3 274/3/3 281/3/3
f 283/3/3 276/3/3 275/3/3
f 284/3/3 276/3/3 283/3/3
f 285/3/3 258/3/3 257/3/3
f 286/3/3 258/3/3 285/3/3
f 287/3/3 260/3/3 259/3/3
f 288/3/3 260/3/3 287/3/3
f 291/1/3 290/1/3 289/1/3
f 292/1/3 290/1/3 291/1/3
f 293/1/4 294/1/4 295/1/4
f 295/1/4 294/1/4 296/1/4
f 297/3/4 298/3/4 309/3/4
f 309/3/4 298/3/4 310/3/4
f 299/3/4 300/3/4 311/3/4
f 311/3/4 300/3/4 312/3/4
f 301/3/4 302/3/4 313/3/4
f 313/3/4 302/3/4 314/3/4
f 303/3/4 304/3/4 315/3/4
f 315/3/4 304/3/4 316/3/4
f 305/3/4 306/3/4 317/3/4
f 317/3/4 306/3/4 318/3/4
f 307/3/4 308/3/4 319/3/4
f 319/3/4 308/3/4 320/3/4
f 321/3/4 322/3/4 335/3/4
f 335/3/4 322/3/4 336/3/4
f 323/3/4 324/3/4 337/3/4
f 337/3/4 324/3/4 338/3/4
f 325/3/4 326/3/4 339/3/4
f 339/3/4 326/3/4 340/3/4
f 327/3/4 328/3/4 341/3/4
f 341/3/4 328/3/4 342/3/4
f 329/3/4 330/3/4 343/3/4
f 343/3/4 330/3/4 344/3/4
f 331/3/4 332/3/4 345/3/4
f 345/3/4 332/3/4 346/3/4
f 333/3/4 334/3/4 347/3/4
f 347/3/4 334/3/4 348/3/4
f 349/1/4 350/1/4 351/1/4
f 351/1/4 350/1/4 352/1/4
f 358/1/5 354/1/5 353/1/5
f 359/1/5 354/1/5 358/1/5
f 360/1/5 356/1/5 355/1/5
f 361/1/5 356/1/5 360/1/5
f 363/3/5 359/3/5 358/3/5
f 363/3/5 358/3/5 357/3/5
f 363/2/5 360/2/5 359/2/5
f 364/3/5 362/3/5 361/3/5
f 364/2/5 360/2/5 363/2/5
f 364/3/5 361/3/5 360/3/5
f 365/3/5 363/3/5 357/3/5
f 365/3/5 364/3/5 363/3/5
f 366/3/5 362/3/5 364/3/5
f 366/3/5 364/3/5 365/3/5
f 371/3/5 368/3/5 367/3/5
f 372/3/5 368/3/5 371/3/5
f 373/3/5 370/3/5 369/3/5
f 374/3/5 370/3/5 373/3/5
f 375/3/5 371/3/5 367/3/5
f 376/3/5 370/3/5 374/3/5
f 377/3/5 375/3/5 367/3/5
f 377/3/5 376/3/5 375/3/5
f 378/3/5 370/3/5 376/3/5
f 378/3/5 376/3/5 377/3/5
f 381/1/5 380/1/5 379/1/5
f 382/1/5 380/1/5 381/1/5
f 387/3/5 384/3/5 383/3/5
f 388/3/5 384/3/5 387/3/5
f 389/3/5 386/3/5 385/3/5
f 390/3/5 386/3/5 389/3/5
f 391/3/5 387/3/5 383/3/5
f 392/3/5 386/3/5 390/3/5
f 393/3/5 391/3/5 383/3/5
f 393/3/5 392/3/5 391/3/5
f 394/3/5 386/3/5 392/3/5
f 394/3/5 392/3/5 393/3/5
f 399/3/5 396/3/5 395/3/5
f 400/3/5 396/3/5 399/3/5
f 401/3/5 398/3/5 397/3/5
f 402/3/5 398/3/5 401/3/5
f 403/3/5 399/3/5 395/3/5
f 404/3/5 398/3/5 402/3/5
f 405/3/5 403/3/5 395/3/5
f 405/3/5 404/3/5 403/3/5
f 406/3/5 398/3/5 404/3/5
f 406/3/5 404/3/5 405/3/5
f 411/3/5 408/3/5 407/3/5
f 412/3/5 408/3/5 411/3/5
f 413/3/5 410/3/5 409/3/5
f 414/3/5 410/3/5 413/3/5
f 415/3/5 411/3/5 407/3/5
f 416/3/5 410/3/5 414/3/5
f 417/3/5 415/3/5 407/3/5
f 417/3/5 416/3/5 415/3/5
f 418/3/5 410/3/5 416/3/5
f 418/3/5 416/3/5 417/3/5
f 421/1/5 420/1/5 419/1/5
f 422/1/5 420/1/5 421/1/5
f 425/3/5 424/3/5 423/3/5
f 426/3/5 424/3/5 425/3/5
f 427/3/5 425/3/5 423/3/5
f 428/3/5 424/3/5 426/3/5
f 429/3/5 427/3/5 423/3/5
f 429/3/5 428/3/5 427/3/5
f 430/3/5 424/3/5 428/3/5
f 430/3/5 428/3/5 429/3/5
f 433/3/5 432/3/5 431/3/5
f 434/3/5 432/3/5 433/3/5
f 435/3/5 433/3/5 431/3/5
f 436/3/5 432/3/5 434/3/5
f 437/3/5 435/3/5 431/3/5
f 437/3/5 436/3/5 435/3/5
f 438/3/5 432/3/5 436/3/5
f 438/3/5 436/3/5 437/3/5
f 441/1/5 440/1/5 439/1/5
f 442/1/5 440/1/5 441/1/5
f 443/1/5 441/1/5 439/1/5
f 444/1/5 440/1/5 442/1/5
f 445/1/5 443/1/5 439/1/5
f 445/1/5 444/1/5 443/1/5
f 446/1/5 440/1/5 444/1/5
f 446/1/5 444/1/5 445/1/5
f 447/3/6 448/3/6 451/3/6
f 451/3/6 448/3/6 452/3/6
f 449/3/6 450/3/6 453/3/6
f 453/3/6 450/3/6 454/3/6
f 447/3/6 451/3/6 455/3/6
f 454/3/6 450/3/6 456/3/6
f 447/3/6 455/3/6 457/3/6
f 455/3/6 456/3/6 457/3/6
f 456/3/6 450/3/6 458/3/6
f 457/3/6 456/3/6 458/3/6
f 459/3/6 460/3/6 463/3/6
f 463/3/6 460/3/6 464/3/6
f 461/3/6 462/3/6 465/3/6
f 465/3/6 462/3/6 466/3/6
f 459/3/6 463/3/6 467/3/6
f 466/3/6 462/3/6 468/3/6
f 459/3/6 467/3/6 469/3/6
f 467/3/6 468/3/6 469/3/6
f 468/3/6 462/3/6 470/3/6
f 469/3/6 468/3/6 470/3/6
f 471/1/6 472/1/6 473/1/6
f 473/1/6 472/1/6 474/1/6
f 475/3/6 476/3/6 479/3/6
f 479/3/6 476/3/6 480/3/6
f 477/3/6 478/3/6 481/3/6
f 481/3/6 478/3/6 482/3/6
f 475/3/6 479/3/6 483/3/6
f 482/3/6 478/3/6 484/3/6
f 475/3/6 483/3/6 485/3/6
f 483/3/6 484/3/6 485/3/6
f 484/3/6 478/3/6 486/3/6
f 485/3/6 484/3/6 486/3/6
f 487/3/6 488/3/6 491/3/6
f 491/3/6 488/3/6 492/3/6
f 489/3/6 490/3/6 493/3/6
f 493/3/6 490/3/6 494/3/6
f 487/3/6 491/3/6 495/3/6
f 494/3/6 490/3/6 496/3/6
f 487/3/6 495/3/6 497/3/6
f 495/3/6 496/3/6 497/3/6
f 496/3/6 490/3/6 498/3/6
f 497/3/6 496/3/6 498/3/6
f 499/1/6 500/1/6 502/1/6
f 502/1/6 500/1/6 503/1/6
f 501/3/6 502/3/6 505/3/6
f 503/3/6 504/3/6 505/3/6
f 502/3/6 503/3/6 505/3/6
f 505/3/6 504/3/6 506/3/6
f 501/3/6 505/3/6 507/3/6
f 506/3/6 504/3/6 508/3/6
f 501/3/6 507/3/6 509/3/6
f 507/3/6 508/3/6 509/3/6
f 508/3/6 504/3/6 510/3/6
f 509/3/6 508/3/6 510/3/6
f 511/3/6 512/3/6 513/3/6
f 513/3/6 512/3/6 514/3/6
f 511/3/6 513/3/6 515/3/6
f 514/3/6 512/3/6 516/3/6
f 511/3/6 515/3/6 517/3/6
f 515/3/6 516/3/6 517/3/6
f 516/3/6 512/3/6 518/3/6
f 517/3/6 516/3/6 518/3/6
f 519/3/6 520/3/6 521/3/6
f 521/3/6 520/3/6 522/3/6
f 523/1/6 524/1/6 525/1/6
f 525/1/6 524/1/6 526/1/6
f 523/1/6 525/1/6 527/1/6
f 526/1/6 524/1/6 528/1/6
f 523/1/6 527/1/6 529/1/6
f 527/1/6 528/1/6 529/1/6
f 528/1/6 524/1/6 530/1/6
f 529/1/6 528/1/6 530/1/6
