# MagicaVoxel @ Ephtracy

# group
o 

# material
mtllib osnovanye.mtl
usemtl palette

# normals
vn -1 0 0
vn 1 0 0
vn 0 0 1
vn 0 0 -1
vn 0 -1 0
vn 0 1 0

# texcoords
vt 0.974609 0.5
vt 0.982422 0.5

# verts
v -5.7 0 2.7
v -5.7 0 -3.4
v -5.7 0.1 2.7
v -5.7 0.1 -3.4
v 1.6 0 6
v 1.6 0 2.7
v 1.6 0.1 6
v 1.6 0.1 2.7
v 12 0 6
v 12 0 -3.4
v 12 0.1 6
v 12 0.1 -3.4
v 1.6 0 6
v 1.6 0.1 6
v 12 0 6
v 12 0.1 6
v -5.7 0 2.7
v -5.7 0.1 2.7
v 1.6 0 2.7
v 1.6 0.1 2.7
v -5.7 0 -3.4
v -5.7 0.1 -3.4
v -5.6 0 -3.4
v -5.6 0.1 -3.4
v -5.5 0 -3.4
v -5.5 0.1 -3.4
v 12 0 -3.4
v 12 0.1 -3.4
v 1.6 0 6
v 12 0 6
v 1.7 0 5.9
v 11.9 0 5.9
v -5.7 0 2.7
v 1.6 0 2.7
v -5.6 0 2.6
v 1.7 0 2.6
v -5.5 0 -3.3
v 11.9 0 -3.3
v -5.7 0 -3.4
v -5.6 0 -3.4
v -5.5 0 -3.4
v 12 0 -3.4
v 1.6 0.1 6
v 12 0.1 6
v 1.7 0.1 5.9
v 11.9 0.1 5.9
v -5.7 0.1 2.7
v 1.6 0.1 2.7
v -5.6 0.1 2.6
v 1.7 0.1 2.6
v -5.5 0.1 -3.3
v 11.9 0.1 -3.3
v -5.7 0.1 -3.4
v -5.6 0.1 -3.4
v -5.5 0.1 -3.4
v 12 0.1 -3.4

# faces
f 3/2/1 2/2/1 1/2/1
f 4/2/1 2/2/1 3/2/1
f 7/2/1 6/2/1 5/2/1
f 8/2/1 6/2/1 7/2/1
f 9/2/2 10/2/2 11/2/2
f 11/2/2 10/2/2 12/2/2
f 15/2/3 14/2/3 13/2/3
f 16/2/3 14/2/3 15/2/3
f 19/2/3 18/2/3 17/2/3
f 20/2/3 18/2/3 19/2/3
f 21/2/4 22/2/4 23/2/4
f 23/2/4 22/2/4 24/2/4
f 23/1/4 24/1/4 25/1/4
f 25/1/4 24/1/4 26/1/4
f 25/2/4 26/2/4 27/2/4
f 27/2/4 26/2/4 28/2/4
f 31/2/5 30/2/5 29/2/5
f 32/2/5 30/2/5 31/2/5
f 34/2/5 31/2/5 29/2/5
f 35/2/5 34/2/5 33/2/5
f 36/1/5 32/1/5 31/1/5
f 36/2/5 34/2/5 35/2/5
f 36/2/5 31/2/5 34/2/5
f 37/1/5 36/1/5 35/1/5
f 38/2/5 30/2/5 32/2/5
f 38/1/5 36/1/5 37/1/5
f 38/1/5 32/1/5 36/1/5
f 39/2/5 35/2/5 33/2/5
f 40/1/5 37/1/5 35/1/5
f 40/2/5 35/2/5 39/2/5
f 41/2/5 38/2/5 37/2/5
f 41/1/5 37/1/5 40/1/5
f 42/2/5 30/2/5 38/2/5
f 42/2/5 38/2/5 41/2/5
f 43/2/6 44/2/6 45/2/6
f 45/2/6 44/2/6 46/2/6
f 43/2/6 45/2/6 48/2/6
f 47/2/6 48/2/6 49/2/6
f 45/1/6 46/1/6 50/1/6
f 49/2/6 48/2/6 50/2/6
f 48/2/6 45/2/6 50/2/6
f 49/1/6 50/1/6 51/1/6
f 46/2/6 44/2/6 52/2/6
f 51/1/6 50/1/6 52/1/6
f 50/1/6 46/1/6 52/1/6
f 47/2/6 49/2/6 53/2/6
f 49/1/6 51/1/6 54/1/6
f 53/2/6 49/2/6 54/2/6
f 51/2/6 52/2/6 55/2/6
f 54/1/6 51/1/6 55/1/6
f 52/2/6 44/2/6 56/2/6
f 55/2/6 52/2/6 56/2/6
