# MagicaVoxel @ Ephtracy

# group
o 

# material
mtllib SignalBuilding.mtl
usemtl palette

# normals
vn -1 0 0
vn 1 0 0
vn 0 0 1
vn 0 0 -1
vn 0 -1 0
vn 0 1 0

# texcoords
vt 0.775391 0.5
vt 0.779297 0.5
vt 0.806641 0.5
vt 0.966797 0.5
vt 0.978516 0.5
vt 0.986328 0.5

# verts
v -2 3.8 1.8
v -2 3.8 -1.8
v -2 4 1.8
v -2 4 -1.8
v -1.9 0 1.8
v -1.9 0 -1.8
v -1.9 0.5 1.8
v -1.9 0.5 -1.8
v -1.9 0.6 1.8
v -1.9 0.6 -1.8
v -1.9 0.7 1.8
v -1.9 0.7 -1.8
v -1.9 0.9 1.8
v -1.9 0.9 -1.8
v -1.9 1.1 1.8
v -1.9 1.1 -1.8
v -1.9 3.8 1.9
v -1.9 3.8 1.8
v -1.9 3.8 -1.8
v -1.9 3.8 -1.9
v -1.9 4 1.9
v -1.9 4 1.8
v -1.9 4 -1.8
v -1.9 4 -1.9
v -1.8 0 1.9
v -1.8 0 1.8
v -1.8 0 -1.8
v -1.8 0 -1.9
v -1.8 0.5 1.9
v -1.8 0.5 1.8
v -1.8 0.5 -1.8
v -1.8 0.5 -1.9
v -1.8 0.6 1.9
v -1.8 0.6 1.8
v -1.8 0.6 -1.8
v -1.8 0.6 -1.9
v -1.8 0.7 1.9
v -1.8 0.7 1.8
v -1.8 0.7 -1.8
v -1.8 0.7 -1.9
v -1.8 0.9 1.9
v -1.8 0.9 1.8
v -1.8 0.9 -1.8
v -1.8 0.9 -1.9
v -1.8 1.1 1.9
v -1.8 1.1 1.8
v -1.8 1.1 -1.8
v -1.8 1.1 -1.9
v -1.8 3.8 2
v -1.8 3.8 1.9
v -1.8 3.8 1.8
v -1.8 3.8 -1.8
v -1.8 3.8 -1.9
v -1.8 3.8 -2
v -1.8 4 2
v -1.8 4 1.9
v -1.8 4 -1.9
v -1.8 4 -2
v -1.5 1.3 2
v -1.5 1.3 1.9
v -1.5 2.6 2
v -1.5 2.6 1.9
v -1.4 1.2 2
v -1.4 1.2 1.9
v -1.4 1.3 2
v -1.4 1.3 1.9
v -1.4 2.6 2
v -1.4 2.6 1.9
v -1.4 2.7 2
v -1.4 2.7 1.9
v 0.8 1.3 2
v 0.8 1.3 1.9
v 0.8 1.3 1.8
v 0.8 2.6 2
v 0.8 2.6 1.9
v 0.8 2.6 1.8
v 1.2 0 2
v 1.2 0 1.9
v 1.2 0.5 1.9
v 1.2 0.6 1.9
v 1.2 0.7 1.9
v 1.2 0.9 1.9
v 1.2 1.1 1.9
v 1.2 3 2
v 1.2 3 1.9
v 1.3 3 2
v 1.3 3 1.9
v 1.3 3.1 2
v 1.3 3.1 1.9
v 1.4 3.1 2
v 1.4 3.1 1.9
v 1.4 3.2 2
v 1.4 3.2 1.9
v 1.7 1 1.9
v 1.7 1 1.8
v 1.7 2 1.9
v 1.7 2 1.8
v 3.2 0.1 1.9
v 3.2 0.1 1.8
v 3.2 2.9 1.9
v 3.2 2.9 1.8
v 3.3 0 2
v 3.3 0 1.9
v 3.3 3 2
v 3.3 3 1.9
v 3.9 0 1.8
v 3.9 0 -1.8
v 3.9 0.5 1.8
v 3.9 0.5 -1.8
v 3.9 0.6 1.8
v 3.9 0.6 -1.8
v 3.9 0.7 1.8
v 3.9 0.7 -1.8
v 3.9 0.9 1.8
v 3.9 0.9 -1.8
v 3.9 1.1 1.8
v 3.9 1.1 -1.8
v 3.9 3.8 1.8
v 3.9 3.8 -1.8
v 3.9 3.9 1.9
v 3.9 3.9 1.8
v 3.9 3.9 -1.8
v 3.9 3.9 -1.9
v 3.9 4 1.9
v 3.9 4 1.8
v 3.9 4 -1.8
v 3.9 4 -1.9
v 4 3.9 1.8
v 4 3.9 -1.8
v 4 4 1.8
v 4 4 -1.8
v -1.9 3.9 1.8
v -1.9 3.9 -1.8
v -1.9 4 1.8
v -1.9 4 -1.8
v -1.8 0 1.8
v -1.8 0 -1.8
v -1.8 0.5 1.8
v -1.8 0.5 -1.8
v -1.8 0.6 1.8
v -1.8 0.6 -1.8
v -1.8 0.7 1.8
v -1.8 0.7 -1.8
v -1.8 0.9 1.8
v -1.8 0.9 -1.8
v -1.8 1.1 1.8
v -1.8 1.1 -1.8
v -1.8 3.8 1.8
v -1.8 3.8 -1.8
v -1.8 3.9 1.9
v -1.8 3.9 1.8
v -1.8 3.9 -1.8
v -1.8 3.9 -1.9
v -1.8 4 1.9
v -1.8 4 1.8
v -1.8 4 -1.8
v -1.8 4 -1.9
v -1.4 1.3 2
v -1.4 1.3 1.9
v -1.4 1.3 1.8
v -1.4 2.6 2
v -1.4 2.6 1.9
v -1.4 2.6 1.8
v 0.8 1.2 2
v 0.8 1.2 1.9
v 0.8 1.3 2
v 0.8 1.3 1.9
v 0.8 2.6 2
v 0.8 2.6 1.9
v 0.8 2.7 2
v 0.8 2.7 1.9
v 0.9 1.3 2
v 0.9 1.3 1.9
v 0.9 2.6 2
v 0.9 2.6 1.9
v 1.4 0 2
v 1.4 0 1.9
v 1.4 3 2
v 1.4 3 1.9
v 1.5 0.1 1.9
v 1.5 0.1 1.8
v 1.5 2.9 1.9
v 1.5 2.9 1.8
v 1.8 1 1.9
v 1.8 1 1.8
v 1.8 2 1.9
v 1.8 2 1.8
v 3.3 3.1 2
v 3.3 3.1 1.9
v 3.3 3.2 2
v 3.3 3.2 1.9
v 3.4 3 2
v 3.4 3 1.9
v 3.4 3.1 2
v 3.4 3.1 1.9
v 3.5 0 2
v 3.5 0 1.9
v 3.5 0.5 1.9
v 3.5 0.6 1.9
v 3.5 0.7 1.9
v 3.5 0.9 1.9
v 3.5 1.1 1.9
v 3.5 3 2
v 3.5 3 1.9
v 3.9 0 1.9
v 3.9 0 1.8
v 3.9 0 -1.8
v 3.9 0 -1.9
v 3.9 0.5 1.9
v 3.9 0.5 1.8
v 3.9 0.5 -1.8
v 3.9 0.5 -1.9
v 3.9 0.6 1.9
v 3.9 0.6 1.8
v 3.9 0.6 -1.8
v 3.9 0.6 -1.9
v 3.9 0.7 1.9
v 3.9 0.7 1.8
v 3.9 0.7 -1.8
v 3.9 0.7 -1.9
v 3.9 0.9 1.9
v 3.9 0.9 1.8
v 3.9 0.9 -1.8
v 3.9 0.9 -1.9
v 3.9 1.1 1.9
v 3.9 1.1 1.8
v 3.9 1.1 -1.8
v 3.9 1.1 -1.9
v 3.9 3.8 2
v 3.9 3.8 1.9
v 3.9 3.8 1.8
v 3.9 3.8 -1.8
v 3.9 3.8 -1.9
v 3.9 3.8 -2
v 3.9 4 2
v 3.9 4 1.9
v 3.9 4 -1.9
v 3.9 4 -2
v 4 0 1.8
v 4 0 -1.8
v 4 0.5 1.8
v 4 0.5 -1.8
v 4 0.6 1.8
v 4 0.6 -1.8
v 4 0.7 1.8
v 4 0.7 -1.8
v 4 0.9 1.8
v 4 0.9 -1.8
v 4 1.1 1.8
v 4 1.1 -1.8
v 4 3.8 1.9
v 4 3.8 1.8
v 4 3.8 -1.8
v 4 3.8 -1.9
v 4 4 1.9
v 4 4 1.8
v 4 4 -1.8
v 4 4 -1.9
v 4.1 3.8 1.8
v 4.1 3.8 -1.8
v 4.1 4 1.8
v 4.1 4 -1.8
v -1.8 3.8 2
v -1.8 4 2
v -1.5 1.3 2
v -1.5 2.6 2
v -1.4 1.2 2
v -1.4 1.3 2
v -1.4 2.6 2
v -1.4 2.7 2
v 0.8 1.2 2
v 0.8 1.3 2
v 0.8 2.6 2
v 0.8 2.7 2
v 0.9 1.3 2
v 0.9 2.6 2
v 1.2 0 2
v 1.2 3 2
v 1.3 3 2
v 1.3 3.1 2
v 1.4 0 2
v 1.4 3 2
v 1.4 3.1 2
v 1.4 3.2 2
v 3.3 0 2
v 3.3 3 2
v 3.3 3.1 2
v 3.3 3.2 2
v 3.4 3 2
v 3.4 3.1 2
v 3.5 0 2
v 3.5 3 2
v 3.9 3.8 2
v 3.9 4 2
v -1.9 3.8 1.9
v -1.9 4 1.9
v -1.8 0 1.9
v -1.8 0.5 1.9
v -1.8 0.6 1.9
v -1.8 0.7 1.9
v -1.8 0.9 1.9
v -1.8 1.1 1.9
v -1.8 3.8 1.9
v -1.8 4 1.9
v -1.5 1.3 1.9
v -1.5 2.6 1.9
v -1.4 1.2 1.9
v -1.4 1.3 1.9
v -1.4 2.6 1.9
v -1.4 2.7 1.9
v 0.8 1.2 1.9
v 0.8 1.3 1.9
v 0.8 2.6 1.9
v 0.8 2.7 1.9
v 0.9 1.3 1.9
v 0.9 2.6 1.9
v 1.2 0 1.9
v 1.2 0.5 1.9
v 1.2 0.6 1.9
v 1.2 0.7 1.9
v 1.2 0.9 1.9
v 1.2 1.1 1.9
v 1.2 3 1.9
v 1.3 3 1.9
v 1.3 3.1 1.9
v 1.4 0 1.9
v 1.4 3 1.9
v 1.4 3.1 1.9
v 1.4 3.2 1.9
v 1.5 0.1 1.9
v 1.5 2.9 1.9
v 1.7 1 1.9
v 1.7 2 1.9
v 1.8 1 1.9
v 1.8 2 1.9
v 3.2 0.1 1.9
v 3.2 2.9 1.9
v 3.3 0 1.9
v 3.3 3 1.9
v 3.3 3.1 1.9
v 3.3 3.2 1.9
v 3.4 3 1.9
v 3.4 3.1 1.9
v 3.5 0 1.9
v 3.5 0.5 1.9
v 3.5 0.6 1.9
v 3.5 0.7 1.9
v 3.5 0.9 1.9
v 3.5 1.1 1.9
v 3.5 3 1.9
v 3.9 0 1.9
v 3.9 0.5 1.9
v 3.9 0.6 1.9
v 3.9 0.7 1.9
v 3.9 0.9 1.9
v 3.9 1.1 1.9
v 3.9 3.8 1.9
v 3.9 4 1.9
v 4 3.8 1.9
v 4 4 1.9
v -2 3.8 1.8
v -2 4 1.8
v -1.9 0 1.8
v -1.9 0.5 1.8
v -1.9 0.6 1.8
v -1.9 0.7 1.8
v -1.9 0.9 1.8
v -1.9 1.1 1.8
v -1.9 3.8 1.8
v -1.9 4 1.8
v -1.8 0 1.8
v -1.8 0.5 1.8
v -1.8 0.6 1.8
v -1.8 0.7 1.8
v -1.8 0.9 1.8
v -1.8 1.1 1.8
v -1.8 3.8 1.8
v 3.9 0 1.8
v 3.9 0.5 1.8
v 3.9 0.6 1.8
v 3.9 0.7 1.8
v 3.9 0.9 1.8
v 3.9 1.1 1.8
v 3.9 3.8 1.8
v 4 0 1.8
v 4 0.5 1.8
v 4 0.6 1.8
v 4 0.7 1.8
v 4 0.9 1.8
v 4 1.1 1.8
v 4 3.8 1.8
v 4 4 1.8
v 4.1 3.8 1.8
v 4.1 4 1.8
v -1.9 3.9 -1.8
v -1.9 4 -1.8
v -1.8 0 -1.8
v -1.8 0.5 -1.8
v -1.8 0.6 -1.8
v -1.8 0.7 -1.8
v -1.8 0.9 -1.8
v -1.8 1.1 -1.8
v -1.8 3.8 -1.8
v -1.8 3.9 -1.8
v -1.8 4 -1.8
v 3.9 0 -1.8
v 3.9 0.5 -1.8
v 3.9 0.6 -1.8
v 3.9 0.7 -1.8
v 3.9 0.9 -1.8
v 3.9 1.1 -1.8
v 3.9 3.8 -1.8
v 3.9 3.9 -1.8
v 3.9 4 -1.8
v 4 3.9 -1.8
v 4 4 -1.8
v -1.8 3.9 -1.9
v -1.8 4 -1.9
v 3.9 3.9 -1.9
v 3.9 4 -1.9
v -1.8 3.9 1.9
v -1.8 4 1.9
v 3.9 3.9 1.9
v 3.9 4 1.9
v -1.9 3.9 1.8
v -1.9 4 1.8
v -1.8 0 1.8
v -1.8 0.5 1.8
v -1.8 0.6 1.8
v -1.8 0.7 1.8
v -1.8 0.9 1.8
v -1.8 1.1 1.8
v -1.8 3.8 1.8
v -1.8 3.9 1.8
v -1.8 4 1.8
v -1.4 1.3 1.8
v -1.4 2.6 1.8
v 0.8 1.3 1.8
v 0.8 2.6 1.8
v 1.2 0 1.8
v 1.2 0.5 1.8
v 1.2 0.6 1.8
v 1.2 0.7 1.8
v 1.2 0.9 1.8
v 1.2 1.1 1.8
v 1.3 0 1.8
v 1.3 1.1 1.8
v 1.4 0 1.8
v 1.4 3 1.8
v 1.5 0.1 1.8
v 1.5 2.9 1.8
v 1.7 1 1.8
v 1.7 2 1.8
v 1.8 1 1.8
v 1.8 2 1.8
v 3.2 0.1 1.8
v 3.2 2.9 1.8
v 3.3 0 1.8
v 3.3 3 1.8
v 3.4 0 1.8
v 3.4 1.1 1.8
v 3.5 0 1.8
v 3.5 0.5 1.8
v 3.5 0.6 1.8
v 3.5 0.7 1.8
v 3.5 0.9 1.8
v 3.5 1.1 1.8
v 3.9 0 1.8
v 3.9 0.5 1.8
v 3.9 0.6 1.8
v 3.9 0.7 1.8
v 3.9 0.9 1.8
v 3.9 1.1 1.8
v 3.9 3.8 1.8
v 3.9 3.9 1.8
v 3.9 4 1.8
v 4 3.9 1.8
v 4 4 1.8
v -2 3.8 -1.8
v -2 4 -1.8
v -1.9 0 -1.8
v -1.9 0.5 -1.8
v -1.9 0.6 -1.8
v -1.9 0.7 -1.8
v -1.9 0.9 -1.8
v -1.9 1.1 -1.8
v -1.9 3.8 -1.8
v -1.9 4 -1.8
v -1.8 0 -1.8
v -1.8 0.5 -1.8
v -1.8 0.6 -1.8
v -1.8 0.7 -1.8
v -1.8 0.9 -1.8
v -1.8 1.1 -1.8
v -1.8 3.8 -1.8
v 3.9 0 -1.8
v 3.9 0.5 -1.8
v 3.9 0.6 -1.8
v 3.9 0.7 -1.8
v 3.9 0.9 -1.8
v 3.9 1.1 -1.8
v 3.9 3.8 -1.8
v 4 0 -1.8
v 4 0.5 -1.8
v 4 0.6 -1.8
v 4 0.7 -1.8
v 4 0.9 -1.8
v 4 1.1 -1.8
v 4 3.8 -1.8
v 4 4 -1.8
v 4.1 3.8 -1.8
v 4.1 4 -1.8
v -1.9 3.8 -1.9
v -1.9 4 -1.9
v -1.8 0 -1.9
v -1.8 0.5 -1.9
v -1.8 0.6 -1.9
v -1.8 0.7 -1.9
v -1.8 0.9 -1.9
v -1.8 1.1 -1.9
v -1.8 3.8 -1.9
v -1.8 4 -1.9
v 3.9 0 -1.9
v 3.9 0.5 -1.9
v 3.9 0.6 -1.9
v 3.9 0.7 -1.9
v 3.9 0.9 -1.9
v 3.9 1.1 -1.9
v 3.9 3.8 -1.9
v 3.9 4 -1.9
v 4 3.8 -1.9
v 4 4 -1.9
v -1.8 3.8 -2
v -1.8 4 -2
v 3.9 3.8 -2
v 3.9 4 -2
v 1.2 0 2
v 1.4 0 2
v 3.3 0 2
v 3.5 0 2
v -1.8 0 1.9
v 1.2 0 1.9
v 1.3 0 1.9
v 1.4 0 1.9
v 3.3 0 1.9
v 3.4 0 1.9
v 3.5 0 1.9
v 3.9 0 1.9
v -1.9 0 1.8
v -1.8 0 1.8
v 1.2 0 1.8
v 1.3 0 1.8
v 1.4 0 1.8
v 3.3 0 1.8
v 3.4 0 1.8
v 3.5 0 1.8
v 3.9 0 1.8
v 4 0 1.8
v -1.9 0 -1.8
v -1.8 0 -1.8
v 3.9 0 -1.8
v 4 0 -1.8
v -1.8 0 -1.9
v 3.9 0 -1.9
v 1.7 1 1.9
v 1.8 1 1.9
v 1.7 1 1.8
v 1.8 1 1.8
v -1.4 1.2 2
v 0.8 1.2 2
v -1.4 1.2 1.9
v 0.8 1.2 1.9
v -1.5 1.3 2
v -1.4 1.3 2
v 0.8 1.3 2
v 0.9 1.3 2
v -1.5 1.3 1.9
v -1.4 1.3 1.9
v 0.8 1.3 1.9
v 0.9 1.3 1.9
v -1.4 2.6 2
v 0.8 2.6 2
v -1.4 2.6 1.9
v 0.8 2.6 1.9
v -1.4 2.6 1.8
v 0.8 2.6 1.8
v 1.5 2.9 1.9
v 3.2 2.9 1.9
v 1.5 2.9 1.8
v 3.2 2.9 1.8
v 1.4 3 2
v 3.3 3 2
v 1.4 3 1.9
v 3.3 3 1.9
v -1.8 3.8 2
v 3.9 3.8 2
v -1.9 3.8 1.9
v -1.8 3.8 1.9
v 3.9 3.8 1.9
v 4 3.8 1.9
v -2 3.8 1.8
v -1.9 3.8 1.8
v -1.8 3.8 1.8
v 3.9 3.8 1.8
v 4 3.8 1.8
v 4.1 3.8 1.8
v -2 3.8 -1.8
v -1.9 3.8 -1.8
v -1.8 3.8 -1.8
v 3.9 3.8 -1.8
v 4 3.8 -1.8
v 4.1 3.8 -1.8
v -1.9 3.8 -1.9
v -1.8 3.8 -1.9
v 3.9 3.8 -1.9
v 4 3.8 -1.9
v -1.8 3.8 -2
v 3.9 3.8 -2
v 1.5 0.1 1.9
v 3.2 0.1 1.9
v 1.5 0.1 1.8
v 3.2 0.1 1.8
v -1.4 1.3 2
v 0.8 1.3 2
v -1.4 1.3 1.9
v 0.8 1.3 1.9
v -1.4 1.3 1.8
v 0.8 1.3 1.8
v 1.7 2 1.9
v 1.8 2 1.9
v 1.7 2 1.8
v 1.8 2 1.8
v -1.5 2.6 2
v -1.4 2.6 2
v 0.8 2.6 2
v 0.9 2.6 2
v -1.5 2.6 1.9
v -1.4 2.6 1.9
v 0.8 2.6 1.9
v 0.9 2.6 1.9
v -1.4 2.7 2
v 0.8 2.7 2
v -1.4 2.7 1.9
v 0.8 2.7 1.9
v 1.2 3 2
v 1.3 3 2
v 3.4 3 2
v 3.5 3 2
v 1.2 3 1.9
v 1.3 3 1.9
v 3.4 3 1.9
v 3.5 3 1.9
v 1.3 3.1 2
v 1.4 3.1 2
v 3.3 3.1 2
v 3.4 3.1 2
v 1.3 3.1 1.9
v 1.4 3.1 1.9
v 3.3 3.1 1.9
v 3.4 3.1 1.9
v 1.4 3.2 2
v 3.3 3.2 2
v 1.4 3.2 1.9
v 3.3 3.2 1.9
v -1.8 3.9 1.9
v 3.9 3.9 1.9
v -1.9 3.9 1.8
v -1.8 3.9 1.8
v 3.9 3.9 1.8
v 4 3.9 1.8
v -1.9 3.9 -1.8
v -1.8 3.9 -1.8
v 3.9 3.9 -1.8
v 4 3.9 -1.8
v -1.8 3.9 -1.9
v 3.9 3.9 -1.9
v -1.8 4 2
v 3.9 4 2
v -1.9 4 1.9
v -1.8 4 1.9
v 3.9 4 1.9
v 4 4 1.9
v -2 4 1.8
v -1.9 4 1.8
v -1.8 4 1.8
v 3.9 4 1.8
v 4 4 1.8
v 4.1 4 1.8
v -2 4 -1.8
v -1.9 4 -1.8
v -1.8 4 -1.8
v 3.9 4 -1.8
v 4 4 -1.8
v 4.1 4 -1.8
v -1.9 4 -1.9
v -1.8 4 -1.9
v 3.9 4 -1.9
v 4 4 -1.9
v -1.8 4 -2
v 3.9 4 -2

# faces
f 3/1/1 2/1/1 1/1/1
f 4/1/1 2/1/1 3/1/1
f 7/1/1 6/1/1 5/1/1
f 8/1/1 6/1/1 7/1/1
f 9/4/1 8/4/1 7/4/1
f 10/4/1 8/4/1 9/4/1
f 11/1/1 10/1/1 9/1/1
f 12/1/1 10/1/1 11/1/1
f 13/4/1 12/4/1 11/4/1
f 14/4/1 12/4/1 13/4/1
f 15/1/1 14/1/1 13/1/1
f 16/1/1 14/1/1 15/1/1
f 18/4/1 16/4/1 15/4/1
f 19/4/1 16/4/1 18/4/1
f 21/1/1 18/1/1 17/1/1
f 22/1/1 18/1/1 21/1/1
f 23/1/1 20/1/1 19/1/1
f 24/1/1 20/1/1 23/1/1
f 29/1/1 26/1/1 25/1/1
f 30/1/1 26/1/1 29/1/1
f 31/1/1 28/1/1 27/1/1
f 32/1/1 28/1/1 31/1/1
f 33/4/1 30/4/1 29/4/1
f 34/4/1 30/4/1 33/4/1
f 35/4/1 32/4/1 31/4/1
f 36/4/1 32/4/1 35/4/1
f 37/1/1 34/1/1 33/1/1
f 38/1/1 34/1/1 37/1/1
f 39/1/1 36/1/1 35/1/1
f 40/1/1 36/1/1 39/1/1
f 41/4/1 38/4/1 37/4/1
f 42/4/1 38/4/1 41/4/1
f 43/4/1 40/4/1 39/4/1
f 44/4/1 40/4/1 43/4/1
f 45/1/1 42/1/1 41/1/1
f 46/1/1 42/1/1 45/1/1
f 47/1/1 44/1/1 43/1/1
f 48/1/1 44/1/1 47/1/1
f 50/4/1 46/4/1 45/4/1
f 51/4/1 46/4/1 50/4/1
f 52/4/1 48/4/1 47/4/1
f 53/4/1 48/4/1 52/4/1
f 55/1/1 50/1/1 49/1/1
f 56/1/1 50/1/1 55/1/1
f 57/1/1 54/1/1 53/1/1
f 58/1/1 54/1/1 57/1/1
f 61/2/1 60/2/1 59/2/1
f 62/2/1 60/2/1 61/2/1
f 65/2/1 64/2/1 63/2/1
f 66/2/1 64/2/1 65/2/1
f 69/2/1 68/2/1 67/2/1
f 70/2/1 68/2/1 69/2/1
f 74/2/1 72/2/1 71/2/1
f 75/4/1 73/4/1 72/4/1
f 75/2/1 72/2/1 74/2/1
f 76/4/1 73/4/1 75/4/1
f 79/2/1 78/2/1 77/2/1
f 80/2/1 79/2/1 77/2/1
f 81/2/1 80/2/1 77/2/1
f 82/2/1 81/2/1 77/2/1
f 83/2/1 82/2/1 77/2/1
f 84/2/1 83/2/1 77/2/1
f 85/2/1 83/2/1 84/2/1
f 88/2/1 87/2/1 86/2/1
f 89/2/1 87/2/1 88/2/1
f 92/2/1 91/2/1 90/2/1
f 93/2/1 91/2/1 92/2/1
f 96/5/1 95/5/1 94/5/1
f 97/5/1 95/5/1 96/5/1
f 100/6/1 99/6/1 98/6/1
f 101/6/1 99/6/1 100/6/1
f 104/2/1 103/2/1 102/2/1
f 105/2/1 103/2/1 104/2/1
f 108/1/1 107/1/1 106/1/1
f 109/1/1 107/1/1 108/1/1
f 110/4/1 109/4/1 108/4/1
f 111/4/1 109/4/1 110/4/1
f 112/1/1 111/1/1 110/1/1
f 113/1/1 111/1/1 112/1/1
f 114/4/1 113/4/1 112/4/1
f 115/4/1 113/4/1 114/4/1
f 116/1/1 115/1/1 114/1/1
f 117/1/1 115/1/1 116/1/1
f 118/4/1 117/4/1 116/4/1
f 119/4/1 117/4/1 118/4/1
f 124/1/1 121/1/1 120/1/1
f 125/1/1 121/1/1 124/1/1
f 126/1/1 123/1/1 122/1/1
f 127/1/1 123/1/1 126/1/1
f 130/1/1 129/1/1 128/1/1
f 131/1/1 129/1/1 130/1/1
f 132/1/2 133/1/2 134/1/2
f 134/1/2 133/1/2 135/1/2
f 136/1/2 137/1/2 138/1/2
f 138/1/2 137/1/2 139/1/2
f 138/4/2 139/4/2 140/4/2
f 140/4/2 139/4/2 141/4/2
f 140/1/2 141/1/2 142/1/2
f 142/1/2 141/1/2 143/1/2
f 142/4/2 143/4/2 144/4/2
f 144/4/2 143/4/2 145/4/2
f 144/1/2 145/1/2 146/1/2
f 146/1/2 145/1/2 147/1/2
f 146/4/2 147/4/2 148/4/2
f 148/4/2 147/4/2 149/4/2
f 150/1/2 151/1/2 154/1/2
f 154/1/2 151/1/2 155/1/2
f 152/1/2 153/1/2 156/1/2
f 156/1/2 153/1/2 157/1/2
f 158/2/2 159/2/2 161/2/2
f 159/4/2 160/4/2 162/4/2
f 161/2/2 159/2/2 162/2/2
f 162/4/2 160/4/2 163/4/2
f 164/2/2 165/2/2 166/2/2
f 166/2/2 165/2/2 167/2/2
f 168/2/2 169/2/2 170/2/2
f 170/2/2 169/2/2 171/2/2
f 172/2/2 173/2/2 174/2/2
f 174/2/2 173/2/2 175/2/2
f 176/2/2 177/2/2 178/2/2
f 178/2/2 177/2/2 179/2/2
f 180/6/2 181/6/2 182/6/2
f 182/6/2 181/6/2 183/6/2
f 184/5/2 185/5/2 186/5/2
f 186/5/2 185/5/2 187/5/2
f 188/2/2 189/2/2 190/2/2
f 190/2/2 189/2/2 191/2/2
f 192/2/2 193/2/2 194/2/2
f 194/2/2 193/2/2 195/2/2
f 196/2/2 197/2/2 198/2/2
f 196/2/2 198/2/2 199/2/2
f 196/2/2 199/2/2 200/2/2
f 196/2/2 200/2/2 201/2/2
f 196/2/2 201/2/2 202/2/2
f 196/2/2 202/2/2 203/2/2
f 203/2/2 202/2/2 204/2/2
f 205/1/2 206/1/2 209/1/2
f 209/1/2 206/1/2 210/1/2
f 207/1/2 208/1/2 211/1/2
f 211/1/2 208/1/2 212/1/2
f 209/4/2 210/4/2 213/4/2
f 213/4/2 210/4/2 214/4/2
f 211/4/2 212/4/2 215/4/2
f 215/4/2 212/4/2 216/4/2
f 213/1/2 214/1/2 217/1/2
f 217/1/2 214/1/2 218/1/2
f 215/1/2 216/1/2 219/1/2
f 219/1/2 216/1/2 220/1/2
f 217/4/2 218/4/2 221/4/2
f 221/4/2 218/4/2 222/4/2
f 219/4/2 220/4/2 223/4/2
f 223/4/2 220/4/2 224/4/2
f 221/1/2 222/1/2 225/1/2
f 225/1/2 222/1/2 226/1/2
f 223/1/2 224/1/2 227/1/2
f 227/1/2 224/1/2 228/1/2
f 225/4/2 226/4/2 230/4/2
f 230/4/2 226/4/2 231/4/2
f 227/4/2 228/4/2 232/4/2
f 232/4/2 228/4/2 233/4/2
f 229/1/2 230/1/2 235/1/2
f 235/1/2 230/1/2 236/1/2
f 233/1/2 234/1/2 237/1/2
f 237/1/2 234/1/2 238/1/2
f 239/1/2 240/1/2 241/1/2
f 241/1/2 240/1/2 242/1/2
f 241/4/2 242/4/2 243/4/2
f 243/4/2 242/4/2 244/4/2
f 243/1/2 244/1/2 245/1/2
f 245/1/2 244/1/2 246/1/2
f 245/4/2 246/4/2 247/4/2
f 247/4/2 246/4/2 248/4/2
f 247/1/2 248/1/2 249/1/2
f 249/1/2 248/1/2 250/1/2
f 249/4/2 250/4/2 252/4/2
f 252/4/2 250/4/2 253/4/2
f 251/1/2 252/1/2 255/1/2
f 255/1/2 252/1/2 256/1/2
f 253/1/2 254/1/2 257/1/2
f 257/1/2 254/1/2 258/1/2
f 259/1/2 260/1/2 261/1/2
f 261/1/2 260/1/2 262/1/2
f 268/2/3 266/2/3 265/2/3
f 269/2/3 266/2/3 268/2/3
f 271/2/3 268/2/3 267/2/3
f 272/2/3 268/2/3 271/2/3
f 273/2/3 270/2/3 269/2/3
f 274/2/3 270/2/3 273/2/3
f 275/2/3 273/2/3 272/2/3
f 276/2/3 273/2/3 275/2/3
f 279/2/3 278/2/3 277/2/3
f 281/2/3 279/2/3 277/2/3
f 281/2/3 280/2/3 279/2/3
f 282/2/3 280/2/3 281/2/3
f 283/2/3 280/2/3 282/2/3
f 286/2/3 284/2/3 283/2/3
f 286/2/3 283/2/3 282/2/3
f 287/2/3 284/2/3 286/2/3
f 288/2/3 284/2/3 287/2/3
f 289/2/3 286/2/3 285/2/3
f 289/2/3 287/2/3 286/2/3
f 290/2/3 287/2/3 289/2/3
f 291/2/3 289/2/3 285/2/3
f 292/2/3 289/2/3 291/2/3
f 293/1/3 264/1/3 263/1/3
f 294/1/3 264/1/3 293/1/3
f 303/1/3 296/1/3 295/1/3
f 304/1/3 296/1/3 303/1/3
f 305/4/3 303/4/3 302/4/3
f 306/4/3 303/4/3 305/4/3
f 307/4/3 305/4/3 302/4/3
f 308/4/3 305/4/3 307/4/3
f 309/4/3 303/4/3 306/4/3
f 310/4/3 303/4/3 309/4/3
f 311/4/3 307/4/3 302/4/3
f 314/4/3 303/4/3 310/4/3
f 315/4/3 312/4/3 311/4/3
f 316/4/3 314/4/3 313/4/3
f 317/1/3 298/1/3 297/1/3
f 318/4/3 299/4/3 298/4/3
f 318/1/3 298/1/3 317/1/3
f 319/1/3 300/1/3 299/1/3
f 319/4/3 299/4/3 318/4/3
f 320/4/3 301/4/3 300/4/3
f 320/1/3 300/1/3 319/1/3
f 321/1/3 302/1/3 301/1/3
f 321/4/3 301/4/3 320/4/3
f 322/4/3 316/4/3 315/4/3
f 322/1/3 302/1/3 321/1/3
f 322/4/3 315/4/3 311/4/3
f 322/4/3 311/4/3 302/4/3
f 323/4/3 314/4/3 316/4/3
f 323/4/3 316/4/3 322/4/3
f 323/4/3 303/4/3 314/4/3
f 324/4/3 303/4/3 323/4/3
f 325/4/3 303/4/3 324/4/3
f 328/4/3 303/4/3 325/4/3
f 329/4/3 303/4/3 328/4/3
f 330/6/3 327/6/3 326/6/3
f 331/6/3 327/6/3 330/6/3
f 334/5/3 333/5/3 332/5/3
f 335/5/3 333/5/3 334/5/3
f 336/6/3 330/6/3 326/6/3
f 337/6/3 327/6/3 331/6/3
f 338/6/3 336/6/3 326/6/3
f 338/6/3 337/6/3 336/6/3
f 339/6/3 327/6/3 337/6/3
f 339/6/3 337/6/3 338/6/3
f 341/4/3 303/4/3 329/4/3
f 343/4/3 341/4/3 340/4/3
f 350/4/3 343/4/3 342/4/3
f 351/1/3 345/1/3 344/1/3
f 352/4/3 346/4/3 345/4/3
f 352/1/3 345/1/3 351/1/3
f 353/1/3 347/1/3 346/1/3
f 353/4/3 346/4/3 352/4/3
f 354/4/3 348/4/3 347/4/3
f 354/1/3 347/1/3 353/1/3
f 355/1/3 349/1/3 348/1/3
f 355/4/3 348/4/3 354/4/3
f 356/4/3 350/4/3 349/4/3
f 356/1/3 349/1/3 355/1/3
f 357/4/3 303/4/3 341/4/3
f 357/4/3 350/4/3 356/4/3
f 357/4/3 341/4/3 343/4/3
f 357/4/3 343/4/3 350/4/3
f 359/1/3 358/1/3 357/1/3
f 360/1/3 358/1/3 359/1/3
f 369/1/3 362/1/3 361/1/3
f 370/1/3 362/1/3 369/1/3
f 371/1/3 364/1/3 363/1/3
f 372/4/3 365/4/3 364/4/3
f 372/1/3 364/1/3 371/1/3
f 373/1/3 366/1/3 365/1/3
f 373/4/3 365/4/3 372/4/3
f 374/4/3 367/4/3 366/4/3
f 374/1/3 366/1/3 373/1/3
f 375/1/3 368/1/3 367/1/3
f 375/4/3 367/4/3 374/4/3
f 376/4/3 369/4/3 368/4/3
f 376/1/3 368/1/3 375/1/3
f 377/4/3 369/4/3 376/4/3
f 385/1/3 379/1/3 378/1/3
f 386/4/3 380/4/3 379/4/3
f 386/1/3 379/1/3 385/1/3
f 387/1/3 381/1/3 380/1/3
f 387/4/3 380/4/3 386/4/3
f 388/4/3 382/4/3 381/4/3
f 388/1/3 381/1/3 387/1/3
f 389/1/3 383/1/3 382/1/3
f 389/4/3 382/4/3 388/4/3
f 390/4/3 384/4/3 383/4/3
f 390/1/3 383/1/3 389/1/3
f 391/4/3 384/4/3 390/4/3
f 393/1/3 392/1/3 391/1/3
f 394/1/3 392/1/3 393/1/3
f 404/1/3 396/1/3 395/1/3
f 405/1/3 396/1/3 404/1/3
f 406/1/3 398/1/3 397/1/3
f 407/4/3 399/4/3 398/4/3
f 407/1/3 398/1/3 406/1/3
f 408/1/3 400/1/3 399/1/3
f 408/4/3 399/4/3 407/4/3
f 409/4/3 401/4/3 400/4/3
f 409/1/3 400/1/3 408/1/3
f 410/1/3 402/1/3 401/1/3
f 410/4/3 401/4/3 409/4/3
f 411/4/3 403/4/3 402/4/3
f 411/1/3 402/1/3 410/1/3
f 412/4/3 403/4/3 411/4/3
f 415/1/3 414/1/3 413/1/3
f 416/1/3 414/1/3 415/1/3
f 419/1/3 418/1/3 417/1/3
f 420/1/3 418/1/3 419/1/3
f 421/1/4 422/1/4 423/1/4
f 423/1/4 422/1/4 424/1/4
f 425/1/4 426/1/4 434/1/4
f 434/1/4 426/1/4 435/1/4
f 432/4/4 433/4/4 436/4/4
f 436/4/4 433/4/4 437/4/4
f 432/4/4 436/4/4 438/4/4
f 437/4/4 433/4/4 439/4/4
f 427/1/4 428/1/4 440/1/4
f 428/4/4 429/4/4 441/4/4
f 440/1/4 428/1/4 441/1/4
f 429/1/4 430/1/4 442/1/4
f 441/4/4 429/4/4 442/4/4
f 430/4/4 431/4/4 443/4/4
f 442/1/4 430/1/4 443/1/4
f 431/1/4 432/1/4 444/1/4
f 443/4/4 431/4/4 444/4/4
f 438/4/4 439/4/4 445/4/4
f 444/1/4 432/1/4 445/1/4
f 432/4/4 438/4/4 445/4/4
f 443/3/4 444/3/4 446/3/4
f 440/3/4 441/3/4 446/3/4
f 444/3/4 445/3/4 446/3/4
f 441/3/4 442/3/4 446/3/4
f 442/3/4 443/3/4 446/3/4
f 445/4/4 439/4/4 447/4/4
f 446/3/4 445/3/4 447/3/4
f 446/4/4 447/4/4 448/4/4
f 439/4/4 433/4/4 449/4/4
f 448/4/4 447/4/4 449/4/4
f 447/4/4 439/4/4 449/4/4
f 448/6/4 449/6/4 450/6/4
f 450/6/4 449/6/4 451/6/4
f 452/5/4 453/5/4 454/5/4
f 454/5/4 453/5/4 455/5/4
f 448/6/4 450/6/4 456/6/4
f 451/6/4 449/6/4 457/6/4
f 448/6/4 456/6/4 458/6/4
f 456/6/4 457/6/4 458/6/4
f 449/4/4 433/4/4 459/4/4
f 458/6/4 457/6/4 459/6/4
f 457/6/4 449/6/4 459/6/4
f 458/4/4 459/4/4 460/4/4
f 460/4/4 459/4/4 461/4/4
f 460/3/4 461/3/4 462/3/4
f 462/3/4 461/3/4 463/3/4
f 463/3/4 461/3/4 464/3/4
f 464/3/4 461/3/4 465/3/4
f 465/3/4 461/3/4 466/3/4
f 461/4/4 459/4/4 467/4/4
f 466/3/4 461/3/4 467/3/4
f 462/1/4 463/1/4 468/1/4
f 463/4/4 464/4/4 469/4/4
f 468/1/4 463/1/4 469/1/4
f 464/1/4 465/1/4 470/1/4
f 469/4/4 464/4/4 470/4/4
f 465/4/4 466/4/4 471/4/4
f 470/1/4 465/1/4 471/1/4
f 466/1/4 467/1/4 472/1/4
f 471/4/4 466/4/4 472/4/4
f 467/4/4 459/4/4 473/4/4
f 472/1/4 467/1/4 473/1/4
f 459/4/4 433/4/4 474/4/4
f 473/4/4 459/4/4 474/4/4
f 475/1/4 476/1/4 477/1/4
f 477/1/4 476/1/4 478/1/4
f 479/1/4 480/1/4 487/1/4
f 487/1/4 480/1/4 488/1/4
f 481/1/4 482/1/4 489/1/4
f 482/4/4 483/4/4 490/4/4
f 489/1/4 482/1/4 490/1/4
f 483/1/4 484/1/4 491/1/4
f 490/4/4 483/4/4 491/4/4
f 484/4/4 485/4/4 492/4/4
f 491/1/4 484/1/4 492/1/4
f 485/1/4 486/1/4 493/1/4
f 492/4/4 485/4/4 493/4/4
f 486/4/4 487/4/4 494/4/4
f 493/1/4 486/1/4 494/1/4
f 494/4/4 487/4/4 495/4/4
f 496/1/4 497/1/4 503/1/4
f 497/4/4 498/4/4 504/4/4
f 503/1/4 497/1/4 504/1/4
f 498/1/4 499/1/4 505/1/4
f 504/4/4 498/4/4 505/4/4
f 499/4/4 500/4/4 506/4/4
f 505/1/4 499/1/4 506/1/4
f 500/1/4 501/1/4 507/1/4
f 506/4/4 500/4/4 507/4/4
f 501/4/4 502/4/4 508/4/4
f 507/1/4 501/1/4 508/1/4
f 508/4/4 502/4/4 509/4/4
f 509/1/4 510/1/4 511/1/4
f 511/1/4 510/1/4 512/1/4
f 513/1/4 514/1/4 521/1/4
f 521/1/4 514/1/4 522/1/4
f 515/1/4 516/1/4 523/1/4
f 516/4/4 517/4/4 524/4/4
f 523/1/4 516/1/4 524/1/4
f 517/1/4 518/1/4 525/1/4
f 524/4/4 517/4/4 525/4/4
f 518/4/4 519/4/4 526/4/4
f 525/1/4 518/1/4 526/1/4
f 519/1/4 520/1/4 527/1/4
f 526/4/4 519/4/4 527/4/4
f 520/4/4 521/4/4 528/4/4
f 527/1/4 520/1/4 528/1/4
f 528/4/4 521/4/4 529/4/4
f 529/1/4 530/1/4 531/1/4
f 531/1/4 530/1/4 532/1/4
f 533/1/4 534/1/4 535/1/4
f 535/1/4 534/1/4 536/1/4
f 542/2/5 538/2/5 537/2/5
f 543/2/5 538/2/5 542/2/5
f 544/2/5 538/2/5 543/2/5
f 545/2/5 540/2/5 539/2/5
f 546/2/5 540/2/5 545/2/5
f 547/2/5 540/2/5 546/2/5
f 550/1/5 542/1/5 541/1/5
f 551/3/5 543/3/5 542/3/5
f 551/1/5 542/1/5 550/1/5
f 552/4/5 544/4/5 543/4/5
f 552/3/5 543/3/5 551/3/5
f 553/6/5 545/6/5 544/6/5
f 553/4/5 544/4/5 552/4/5
f 554/4/5 546/4/5 545/4/5
f 554/6/5 545/6/5 553/6/5
f 555/3/5 547/3/5 546/3/5
f 555/4/5 546/4/5 554/4/5
f 556/1/5 548/1/5 547/1/5
f 556/3/5 547/3/5 555/3/5
f 557/1/5 548/1/5 556/1/5
f 559/1/5 550/1/5 549/1/5
f 560/1/5 550/1/5 559/1/5
f 561/1/5 558/1/5 557/1/5
f 562/1/5 558/1/5 561/1/5
f 563/1/5 561/1/5 560/1/5
f 564/1/5 561/1/5 563/1/5
f 567/5/5 566/5/5 565/5/5
f 568/5/5 566/5/5 567/5/5
f 571/2/5 570/2/5 569/2/5
f 572/2/5 570/2/5 571/2/5
f 577/2/5 574/2/5 573/2/5
f 578/2/5 574/2/5 577/2/5
f 579/2/5 576/2/5 575/2/5
f 580/2/5 576/2/5 579/2/5
f 583/2/5 582/2/5 581/2/5
f 584/2/5 582/2/5 583/2/5
f 585/4/5 584/4/5 583/4/5
f 586/4/5 584/4/5 585/4/5
f 589/6/5 588/6/5 587/6/5
f 590/6/5 588/6/5 589/6/5
f 593/2/5 592/2/5 591/2/5
f 594/2/5 592/2/5 593/2/5
f 598/1/5 596/1/5 595/1/5
f 599/1/5 596/1/5 598/1/5
f 602/1/5 598/1/5 597/1/5
f 603/1/5 598/1/5 602/1/5
f 604/1/5 600/1/5 599/1/5
f 605/1/5 600/1/5 604/1/5
f 607/1/5 602/1/5 601/1/5
f 608/1/5 602/1/5 607/1/5
f 609/4/5 604/4/5 603/4/5
f 610/4/5 604/4/5 609/4/5
f 611/1/5 606/1/5 605/1/5
f 612/1/5 606/1/5 611/1/5
f 613/1/5 609/1/5 608/1/5
f 614/1/5 609/1/5 613/1/5
f 615/1/5 611/1/5 610/1/5
f 616/1/5 611/1/5 615/1/5
f 617/1/5 615/1/5 614/1/5
f 618/1/5 615/1/5 617/1/5
f 619/6/6 620/6/6 621/6/6
f 621/6/6 620/6/6 622/6/6
f 623/2/6 624/2/6 625/2/6
f 625/2/6 624/2/6 626/2/6
f 625/4/6 626/4/6 627/4/6
f 627/4/6 626/4/6 628/4/6
f 629/5/6 630/5/6 631/5/6
f 631/5/6 630/5/6 632/5/6
f 633/2/6 634/2/6 637/2/6
f 637/2/6 634/2/6 638/2/6
f 635/2/6 636/2/6 639/2/6
f 639/2/6 636/2/6 640/2/6
f 641/2/6 642/2/6 643/2/6
f 643/2/6 642/2/6 644/2/6
f 645/2/6 646/2/6 649/2/6
f 649/2/6 646/2/6 650/2/6
f 647/2/6 648/2/6 651/2/6
f 651/2/6 648/2/6 652/2/6
f 653/2/6 654/2/6 657/2/6
f 657/2/6 654/2/6 658/2/6
f 655/2/6 656/2/6 659/2/6
f 659/2/6 656/2/6 660/2/6
f 661/2/6 662/2/6 663/2/6
f 663/2/6 662/2/6 664/2/6
f 665/4/6 666/4/6 668/4/6
f 668/4/6 666/4/6 669/4/6
f 667/4/6 668/4/6 671/4/6
f 669/4/6 670/4/6 671/4/6
f 668/4/6 669/4/6 671/4/6
f 671/4/6 670/4/6 672/4/6
f 672/4/6 670/4/6 673/4/6
f 673/4/6 670/4/6 674/4/6
f 672/4/6 673/4/6 675/4/6
f 675/4/6 673/4/6 676/4/6
f 677/1/6 678/1/6 680/1/6
f 680/1/6 678/1/6 681/1/6
f 679/1/6 680/1/6 684/1/6
f 684/1/6 680/1/6 685/1/6
f 681/1/6 682/1/6 686/1/6
f 686/1/6 682/1/6 687/1/6
f 683/1/6 684/1/6 689/1/6
f 689/1/6 684/1/6 690/1/6
f 687/1/6 688/1/6 693/1/6
f 693/1/6 688/1/6 694/1/6
f 690/1/6 691/1/6 695/1/6
f 695/1/6 691/1/6 696/1/6
f 692/1/6 693/1/6 697/1/6
f 697/1/6 693/1/6 698/1/6
f 696/1/6 697/1/6 699/1/6
f 699/1/6 697/1/6 700/1/6
